<svg width="151" height="280" viewBox="0 0 151 280" fill="none" xmlns="http://www.w3.org/2000/svg">
<path fill-rule="evenodd" clip-rule="evenodd" d="M9.65625 3.14062V34.3125C9.65625 35.1562 9.76562 35.8125 9.98438 36.2812C10.2031 36.7188 10.5156 37.0625 10.9219 37.3125C11.3594 37.5312 11.8906 37.6719 12.5156 37.7344C13.1719 37.7969 13.9219 37.8438 14.7656 37.875V39.7031H0.375V37.8281C1.09375 37.7969 1.76562 37.7656 2.39062 37.7344C3.01562 37.6719 3.54688 37.5312 3.98438 37.3125C4.45312 37.0625 4.8125 36.7031 5.0625 36.2344C5.34375 35.7656 5.48438 35.0938 5.48438 34.2188V11.3906C5.48438 10.6094 5.4375 10.0156 5.34375 9.60938C5.28125 9.20312 5.0625 8.96875 4.6875 8.90625C4.34375 8.84375 3.79688 8.95312 3.04688 9.23438C2.32812 9.48438 1.3125 9.875 0 10.4062V8.34375L9.65625 3.14062ZM36.9375 27.8438C35.8125 27.6562 34.7656 27.3438 33.7969 26.9062C32.8281 26.4375 31.9844 25.875 31.2656 25.2188C30.5781 24.5625 30.0312 23.8438 29.625 23.0625C29.25 22.25 29.0625 21.3906 29.0625 20.4844C29.0625 19.4219 29.3125 18.4375 29.8125 17.5312C30.3438 16.625 31.0625 15.8438 31.9688 15.1875C32.875 14.5312 33.9219 14.0312 35.1094 13.6875C36.3281 13.3125 37.6406 13.125 39.0469 13.125C40.5469 13.125 41.9062 13.3281 43.125 13.7344C44.3438 14.1406 45.3906 14.6875 46.2656 15.375C47.1719 16.0312 47.8594 16.8125 48.3281 17.7188C48.8281 18.5938 49.0781 19.5156 49.0781 20.4844C49.0781 21.3906 48.875 22.25 48.4688 23.0625C48.0938 23.8438 47.5625 24.5625 46.875 25.2188C46.2188 25.8438 45.4062 26.3906 44.4375 26.8594C43.5 27.2969 42.4688 27.6094 41.3438 27.7969V32.1562C43.875 31.875 46.3125 31.5469 48.6562 31.1719C51 30.7969 53.1875 30.3906 55.2188 29.9531V5.76562C55.2188 4.79688 54.75 4.01562 53.8125 3.42188C52.9062 2.79688 51.4219 2.23438 49.3594 1.73438L50.1562 0C50.9062 0.09375 51.7344 0.21875 52.6406 0.375C53.5469 0.5 54.4531 0.65625 55.3594 0.84375C56.2656 1 57.125 1.15625 57.9375 1.3125C58.7812 1.46875 59.5156 1.59375 60.1406 1.6875C60.0781 1.96875 60.0156 2.3125 59.9531 2.71875C59.8906 3.125 59.8281 3.54688 59.7656 3.98438C59.7344 4.39062 59.7031 4.76562 59.6719 5.10938C59.6406 5.45312 59.625 5.70312 59.625 5.85938V31.8281C59.625 32.7969 59.5938 33.9219 59.5312 35.2031C59.5 36.4531 59.4375 37.7188 59.3438 39C59.2812 40.25 59.2031 41.4375 59.1094 42.5625C59.0156 43.7188 58.9062 44.6406 58.7812 45.3281L55.5938 45.75C55.5312 45.25 55.4844 44.5781 55.4531 43.7344C55.4219 42.8906 55.375 41.9844 55.3125 41.0156C55.2812 40.0781 55.25 39.1094 55.2188 38.1094V35.2031V32.0156C53.2812 32.4531 51.2812 32.8594 49.2188 33.2344C47.1562 33.6094 45.1094 33.9531 43.0781 34.2656C41.0469 34.5781 39.0938 34.8438 37.2188 35.0625C35.3438 35.2812 33.6562 35.4531 32.1562 35.5781C31.8438 35.6094 31.3906 35.6562 30.7969 35.7188C30.2031 35.75 29.5469 35.8125 28.8281 35.9062C28.1406 35.9688 27.4375 36.0469 26.7188 36.1406C26.0312 36.2031 25.4219 36.2812 24.8906 36.375L22.5 32.4375C23 32.5312 23.5938 32.6094 24.2812 32.6719C24.9688 32.7344 25.6719 32.7969 26.3906 32.8594C27.1094 32.9219 27.7969 32.9688 28.4531 33H30.0938L33.4688 32.8125C34.625 32.7188 35.7812 32.6406 36.9375 32.5781V27.8438ZM33.7031 20.3438C33.7031 21.0312 33.8438 21.6875 34.125 22.3125C34.4062 22.9062 34.7969 23.4375 35.2969 23.9062C35.7969 24.375 36.3594 24.75 36.9844 25.0312C37.6406 25.3125 38.3438 25.4531 39.0938 25.4531C39.7812 25.4531 40.4375 25.3281 41.0625 25.0781C41.7188 24.7969 42.2812 24.4375 42.75 24C43.25 23.5312 43.6406 22.9844 43.9219 22.3594C44.2031 21.7344 44.3438 21.0625 44.3438 20.3438C44.3438 19.6875 44.2031 19.0625 43.9219 18.4688C43.6406 17.875 43.2656 17.3438 42.7969 16.875C42.3281 16.4062 41.7656 16.0312 41.1094 15.75C40.4844 15.4688 39.8125 15.3281 39.0938 15.3281C38.3438 15.3281 37.6406 15.4531 36.9844 15.7031C36.3594 15.9531 35.7969 16.3125 35.2969 16.7812C34.7969 17.2188 34.4062 17.75 34.125 18.375C33.8438 18.9688 33.7031 19.625 33.7031 20.3438ZM45.1406 6.23438H43.3594C42.7344 6.23438 42.0938 6.25 41.4375 6.28125C40.8125 6.28125 40.2031 6.29688 39.6094 6.32812H38.1094C37.8906 6.32812 37.5781 6.34375 37.1719 6.375C36.7656 6.375 36.3125 6.40625 35.8125 6.46875C35.3438 6.5 34.8594 6.54688 34.3594 6.60938C33.8594 6.64062 33.4062 6.6875 33 6.75L31.1719 3.23438C31.5156 3.32812 31.9688 3.42188 32.5312 3.51562C33.0938 3.57812 33.6719 3.65625 34.2656 3.75C34.8906 3.8125 35.4844 3.875 36.0469 3.9375C36.6406 3.96875 37.125 3.98438 37.5 3.98438C37.875 3.98438 38.3906 3.96875 39.0469 3.9375C39.7031 3.90625 40.4062 3.85938 41.1562 3.79688C41.9375 3.70312 42.7344 3.625 43.5469 3.5625C44.3906 3.46875 45.1719 3.375 45.8906 3.28125L45.1406 6.23438ZM51.9844 11.25H49.3594C48.3281 11.25 47.2031 11.2656 45.9844 11.2969C44.7969 11.3281 43.5625 11.3594 42.2812 11.3906C41 11.4219 39.7656 11.4531 38.5781 11.4844C37.3906 11.5156 36.2969 11.5469 35.2969 11.5781C34.2969 11.6094 33.4688 11.6406 32.8125 11.6719C32.4375 11.7031 31.9531 11.75 31.3594 11.8125C30.7656 11.8438 30.1406 11.8906 29.4844 11.9531C28.8281 12.0156 28.2031 12.0781 27.6094 12.1406C27.0156 12.2031 26.5312 12.2656 26.1562 12.3281L24.2812 8.48438C24.7188 8.57812 25.25 8.67188 25.875 8.76562C26.5312 8.82812 27.1875 8.90625 27.8438 9C28.5 9.0625 29.1406 9.125 29.7656 9.1875C30.4219 9.21875 30.9688 9.23438 31.4062 9.23438C32.4688 9.23438 33.875 9.20312 35.625 9.14062C37.375 9.07812 39.25 9 41.25 8.90625C43.25 8.78125 45.25 8.64062 47.25 8.48438C49.25 8.29688 51.0156 8.0625 52.5469 7.78125L51.9844 11.25ZM91.5 35.3906C92.7812 35.3281 93.9375 35.2812 94.9688 35.25C96.0312 35.2188 96.9219 35.1875 97.6406 35.1562C99.7344 35.0625 101.859 34.9219 104.016 34.7344C106.203 34.5156 108.141 34.2812 109.828 34.0312L109.266 37.875C108.016 37.8125 106.391 37.7656 104.391 37.7344C102.391 37.7031 100.344 37.6719 98.25 37.6406C97.375 37.6406 96.3125 37.6562 95.0625 37.6875C93.8125 37.6875 92.4531 37.7188 90.9844 37.7812C89.5469 37.8125 88.0625 37.8594 86.5312 37.9219C85.0312 37.9531 83.5938 38 82.2188 38.0625C80.8438 38.0938 79.5938 38.1406 78.4688 38.2031C77.375 38.2656 76.5156 38.3125 75.8906 38.3438C74.7031 38.4062 73.4375 38.5 72.0938 38.625C70.75 38.75 69.5 38.8906 68.3438 39.0469L66.8438 34.9219C68.25 35.0781 69.7344 35.2188 71.2969 35.3438C72.8906 35.4375 74.4062 35.5156 75.8438 35.5781C76.4375 35.6094 77.1406 35.625 77.9531 35.625H80.6719H83.8125L87.0938 35.5312V24.6094C85.8125 24.6094 84.5781 24.625 83.3906 24.6562C82.2344 24.6562 81.1875 24.6719 80.25 24.7031C80.1875 25.2969 80.0938 25.8906 79.9688 26.4844L77.0625 27C76.9062 26.375 76.7344 25.6094 76.5469 24.7031C76.3906 23.7969 76.2812 22.9375 76.2188 22.125L75.4219 10.5C75.3594 9.9375 75.2812 9.48438 75.1875 9.14062C75.125 8.76562 74.9844 8.46875 74.7656 8.25C74.5781 8.03125 74.2656 7.84375 73.8281 7.6875C73.4219 7.53125 72.875 7.35938 72.1875 7.17188L72.9375 5.48438C74.9688 5.73438 77.2188 5.90625 79.6875 6C82.1875 6.0625 84.7188 6.07812 87.2812 6.04688C89.875 6.01562 92.4219 5.9375 94.9219 5.8125C97.4219 5.6875 99.7188 5.54688 101.812 5.39062C101.688 6.20312 101.547 7.29688 101.391 8.67188C101.266 10.0469 101.141 11.5156 101.016 13.0781C100.891 14.6406 100.766 16.1875 100.641 17.7188C100.516 19.2188 100.422 20.5156 100.359 21.6094C100.734 21.5781 101.078 21.5469 101.391 21.5156C101.734 21.4844 102.047 21.4531 102.328 21.4219L101.484 24.7969C100.359 24.7344 98.9062 24.6875 97.125 24.6562C95.375 24.5938 93.5 24.5625 91.5 24.5625V35.3906ZM96.8438 8.39062C95.875 8.35938 94.5938 8.34375 93 8.34375C91.4375 8.3125 89.8281 8.3125 88.1719 8.34375C86.5156 8.375 84.9219 8.42188 83.3906 8.48438C81.8906 8.51562 80.7188 8.5625 79.875 8.625L80.3906 21.2344V21.75C80.4219 21.9375 80.4219 22.125 80.3906 22.3125C81.5156 22.3125 82.75 22.2969 84.0938 22.2656C85.4375 22.2344 86.8125 22.2031 88.2188 22.1719C89.6562 22.1094 91.0781 22.0625 92.4844 22.0312C93.9219 21.9688 95.2656 21.9062 96.5156 21.8438L96.8438 8.39062ZM131.578 15.7969C133.172 17.0156 134.844 18.1562 136.594 19.2188C138.344 20.25 140.281 21.2969 142.406 22.3594L138.984 25.4062C137.484 24.0312 135.984 22.7031 134.484 21.4219C133.016 20.1094 131.469 18.7969 129.844 17.4844C127.594 19.6406 125.172 21.5469 122.578 23.2031C120.016 24.8281 117.516 26.1562 115.078 27.1875L113.953 25.6406C115.984 24.6406 117.922 23.5 119.766 22.2188C121.609 20.9062 123.312 19.5 124.875 18C126.438 16.4688 127.828 14.8594 129.047 13.1719C130.297 11.4531 131.328 9.6875 132.141 7.875C131.672 7.875 131.141 7.89062 130.547 7.92188C129.953 7.95312 129.344 7.98438 128.719 8.01562C128.094 8.04688 127.484 8.07812 126.891 8.10938C126.297 8.14062 125.781 8.15625 125.344 8.15625C125 8.15625 124.547 8.1875 123.984 8.25C123.453 8.28125 122.859 8.34375 122.203 8.4375C121.547 8.5 120.891 8.57812 120.234 8.67188C119.578 8.73438 118.984 8.79688 118.453 8.85938L116.062 5.15625C116.438 5.21875 116.922 5.29688 117.516 5.39062C118.141 5.45312 118.797 5.51562 119.484 5.57812C120.203 5.64062 120.891 5.70312 121.547 5.76562C122.234 5.79688 122.844 5.8125 123.375 5.8125C125.688 5.84375 128.031 5.76562 130.406 5.57812C132.812 5.39062 134.906 5.07812 136.688 4.64062L138.188 6.04688C137.438 7.89062 136.5 9.625 135.375 11.25C134.25 12.875 132.984 14.3906 131.578 15.7969ZM140.344 0C141.094 0.09375 141.922 0.21875 142.828 0.375C143.734 0.5 144.641 0.65625 145.547 0.84375C146.453 1 147.312 1.15625 148.125 1.3125C148.969 1.46875 149.703 1.59375 150.328 1.6875C150.266 1.96875 150.203 2.3125 150.141 2.71875C150.078 3.125 150.016 3.54688 149.953 3.98438C149.891 4.39062 149.844 4.76562 149.812 5.10938C149.781 5.45312 149.766 5.70312 149.766 5.85938V17.0625C149.766 17.625 149.734 18.2812 149.672 19.0312C149.641 19.7812 149.578 20.5312 149.484 21.2812C149.422 22.0312 149.344 22.75 149.25 23.4375C149.156 24.0938 149.062 24.625 148.969 25.0312L145.734 25.4531C145.672 25.1406 145.625 24.7344 145.594 24.2344C145.562 23.7344 145.516 23.2188 145.453 22.6875C145.422 22.125 145.391 21.5781 145.359 21.0469V19.5938V5.76562C145.359 4.79688 144.891 4.01562 143.953 3.42188C143.047 2.79688 141.562 2.23438 139.5 1.73438L140.344 0ZM145.359 42.9375C143.266 42.8438 141.031 42.8438 138.656 42.9375C136.312 43.0312 133.906 43.125 131.438 43.2188C131.375 43.5 131.312 43.7656 131.25 44.0156C131.219 44.2969 131.172 44.5469 131.109 44.7656L128.016 45.2812C127.922 44.6562 127.828 43.875 127.734 42.9375C127.672 42.0312 127.641 41.1406 127.641 40.2656V31.9688C127.641 31.4688 127.594 31.0469 127.5 30.7031C127.406 30.3594 127.219 30.0625 126.938 29.8125C126.656 29.5312 126.266 29.2969 125.766 29.1094C125.266 28.9219 124.594 28.7344 123.75 28.5469L124.547 26.9531C125.078 27.0156 125.672 27.0781 126.328 27.1406C126.984 27.2031 127.656 27.2812 128.344 27.375C129.062 27.4688 129.766 27.5781 130.453 27.7031C131.172 27.8281 131.844 27.9531 132.469 28.0781C132.406 28.3594 132.344 28.6875 132.281 29.0625L132.094 30.1875C132.062 30.5312 132.031 30.8594 132 31.1719C131.969 31.4844 131.953 31.7344 131.953 31.9219V32.625C134.078 32.5625 136.234 32.4844 138.422 32.3906C140.641 32.2969 142.891 32.1562 145.172 31.9688V30.4688C145.172 30 145.109 29.5938 144.984 29.25C144.859 28.9062 144.641 28.6094 144.328 28.3594C144.016 28.1094 143.578 27.8906 143.016 27.7031C142.484 27.4844 141.797 27.2656 140.953 27.0469L141.656 25.3125C142.938 25.4688 144.344 25.6562 145.875 25.875C147.406 26.0625 148.797 26.2812 150.047 26.5312C149.984 26.8125 149.906 27.1562 149.812 27.5625L149.625 28.6875C149.594 29.0625 149.562 29.4062 149.531 29.7188C149.5 30.0312 149.484 30.2656 149.484 30.4219V37.6406C149.484 39.0469 149.391 40.3125 149.203 41.4375C149.016 42.5938 148.844 43.5312 148.688 44.25L145.594 44.7188C145.531 44.4688 145.484 44.1875 145.453 43.875C145.453 43.5938 145.422 43.2812 145.359 42.9375ZM145.172 39.6562V34.7812C140.828 34.625 136.422 34.7188 131.953 35.0625V38.25C131.953 38.6875 131.938 39.125 131.906 39.5625C131.875 39.9688 131.828 40.3594 131.766 40.7344C133.953 40.6719 136.188 40.5938 138.469 40.5C140.781 40.4375 143.016 40.3281 145.172 40.1719V39.6562ZM119.208 91.8906H60.3703L51.3147 106.735C47.8706 112.38 45.2441 118.486 43.5135 124.868L41.5336 132.171C41.4883 132.338 41.4444 132.505 41.4018 132.673L41.2516 132.45C29.7628 140.194 21.1991 151.564 16.927 164.744C12.655 177.924 12.9208 192.155 17.6821 205.167C22.4434 218.178 31.4258 229.22 43.1958 236.529C54.9658 243.839 68.8451 246.996 82.6189 245.496C96.3927 243.996 109.267 237.925 119.188 228.253C129.108 218.581 135.503 205.865 137.352 192.133C139.201 178.402 136.397 164.447 129.387 152.496C123.088 141.755 113.72 133.189 102.533 127.869L103.574 123.948C105.107 118.171 107.384 112.617 110.345 107.425L119.208 91.8906ZM101.553 131.558L101.062 133.41C100.154 136.83 99.9973 140.406 100.603 143.892L100.657 144.199C101.4 148.476 103.319 152.461 106.198 155.709C109.99 159.989 112.084 165.509 112.084 171.228V173.264C112.084 175.656 111.786 178.04 111.196 180.358L108.39 191.381H43.484L47.4263 181.523C48.6566 178.447 49.2887 175.164 49.2887 171.851C49.2887 167.021 47.9457 162.286 45.4098 158.176L44.9033 157.355C42.7496 153.863 41.349 149.961 40.7914 145.897L40.696 145.202C40.3479 142.666 40.2991 140.104 40.5461 137.569C31.1598 144.738 24.1512 154.612 20.4927 165.899C16.4789 178.283 16.7287 191.654 21.2022 203.878C25.6756 216.103 34.1149 226.477 45.1734 233.345C56.2318 240.213 69.272 243.179 82.2131 241.77C95.1541 240.36 107.25 234.657 116.571 225.569C125.892 216.482 131.9 204.534 133.637 191.633C135.374 178.732 132.74 165.621 126.154 154.392C120.355 144.503 111.785 136.576 101.553 131.558ZM46.125 274.918C45.2578 275.949 44.4492 276.863 43.6992 277.66V278.75H58.6055L60.4336 274.074H58.9922C58.6875 274.66 58.418 275.117 58.1836 275.445C57.9727 275.773 57.7383 276.02 57.4805 276.184C57.2227 276.324 56.918 276.418 56.5664 276.465C56.2148 276.488 55.7578 276.5 55.1953 276.5H48.1992C48.9023 275.68 49.5586 274.906 50.168 274.18C50.7773 273.43 51.3633 272.703 51.9258 272C52.5117 271.273 53.0859 270.547 53.6484 269.82C54.2109 269.07 54.7969 268.285 55.4062 267.465C55.8047 266.949 56.2148 266.375 56.6367 265.742C57.0586 265.086 57.4453 264.395 57.7969 263.668C58.1484 262.918 58.4297 262.156 58.6406 261.383C58.875 260.609 58.9922 259.836 58.9922 259.062C58.9922 258.055 58.8047 257.117 58.4297 256.25C58.0781 255.359 57.5859 254.598 56.9531 253.965C56.3203 253.309 55.5586 252.805 54.668 252.453C53.7773 252.078 52.8047 251.891 51.75 251.891C50.5547 251.891 49.5 252.102 48.5859 252.523C47.6719 252.945 46.8867 253.508 46.2305 254.211C45.5742 254.914 45.0352 255.734 44.6133 256.672C44.2148 257.586 43.9219 258.547 43.7344 259.555L45.3867 259.871C45.5508 259.051 45.8086 258.277 46.1602 257.551C46.5352 256.824 46.9688 256.203 47.4609 255.688C47.9766 255.148 48.5391 254.727 49.1484 254.422C49.7578 254.117 50.4023 253.965 51.082 253.965C51.9727 253.965 52.7227 254.141 53.332 254.492C53.9414 254.82 54.4336 255.254 54.8086 255.793C55.207 256.309 55.4883 256.883 55.6523 257.516C55.8398 258.125 55.9336 258.699 55.9336 259.238C55.9336 259.848 55.8281 260.492 55.6172 261.172C55.4297 261.828 55.1719 262.496 54.8438 263.176C54.5391 263.832 54.1875 264.477 53.7891 265.109C53.4141 265.742 53.0273 266.316 52.6289 266.832C52.207 267.371 51.6445 268.086 50.9414 268.977C50.2383 269.867 49.4766 270.828 48.6562 271.859C47.8359 272.867 46.9922 273.887 46.125 274.918ZM63.0703 260.469C62.7656 262.133 62.6133 263.867 62.6133 265.672C62.6133 267.5 62.7656 269.246 63.0703 270.91C63.3984 272.551 63.8906 274.004 64.5469 275.27C65.2266 276.512 66.0938 277.508 67.1484 278.258C68.2031 278.984 69.457 279.348 70.9102 279.348C72.3633 279.348 73.6172 278.973 74.6719 278.223C75.7266 277.473 76.5938 276.477 77.2734 275.234C77.9531 273.969 78.457 272.516 78.7852 270.875C79.1133 269.211 79.2773 267.465 79.2773 265.637C79.2773 263.832 79.1133 262.098 78.7852 260.434C78.4805 258.77 77.9883 257.305 77.3086 256.039C76.6289 254.773 75.7617 253.766 74.707 253.016C73.6523 252.266 72.3867 251.891 70.9102 251.891C69.457 251.891 68.2031 252.277 67.1484 253.051C66.0938 253.801 65.2266 254.809 64.5469 256.074C63.8906 257.34 63.3984 258.805 63.0703 260.469ZM73.0547 276.852C72.4219 277.438 71.707 277.73 70.9102 277.73C70.1367 277.73 69.4453 277.438 68.8359 276.852C68.2266 276.242 67.6992 275.41 67.2539 274.355C66.832 273.277 66.5039 272 66.2695 270.523C66.0586 269.023 65.9531 267.395 65.9531 265.637C65.9531 263.879 66.0586 262.262 66.2695 260.785C66.5039 259.285 66.832 257.996 67.2539 256.918C67.6758 255.816 68.1914 254.961 68.8008 254.352C69.4102 253.742 70.1133 253.438 70.9102 253.438C71.707 253.438 72.4219 253.754 73.0547 254.387C73.6875 254.996 74.2148 255.852 74.6367 256.953C75.0586 258.031 75.375 259.32 75.5859 260.82C75.8203 262.32 75.9375 263.938 75.9375 265.672C75.9375 267.43 75.8203 269.047 75.5859 270.523C75.375 272 75.0586 273.277 74.6367 274.355C74.2148 275.41 73.6875 276.242 73.0547 276.852ZM104.766 259.344H106.277L105.574 253.684C104.027 253.121 102.516 252.652 101.039 252.277C99.5859 251.879 98.0273 251.68 96.3633 251.68C94.4648 251.68 92.6836 252.043 91.0195 252.77C89.3555 253.473 87.9141 254.445 86.6953 255.688C85.4531 256.93 84.4805 258.406 83.7773 260.117C83.0742 261.805 82.7227 263.633 82.7227 265.602C82.7227 267.477 83.0625 269.246 83.7422 270.91C84.4219 272.574 85.3828 274.027 86.625 275.27C87.8438 276.512 89.3203 277.496 91.0547 278.223C92.7891 278.926 94.6992 279.277 96.7852 279.277C98.4023 279.277 99.9492 279.102 101.426 278.75C102.926 278.375 104.508 277.824 106.172 277.098V276.148L105.609 275.551V270.875C105.609 269.75 105.82 269.047 106.242 268.766C106.688 268.484 107.344 268.344 108.211 268.344V267.043C107.672 267.066 107.004 267.09 106.207 267.113H103.711H101.145C100.324 267.09 99.6211 267.066 99.0352 267.043V268.379C100.277 268.379 101.145 268.52 101.637 268.801C102.152 269.059 102.41 269.75 102.41 270.875V276.289C102.27 276.406 102.059 276.547 101.777 276.711C101.52 276.875 101.18 277.039 100.758 277.203C100.336 277.344 99.832 277.473 99.2461 277.59C98.6602 277.707 97.9688 277.766 97.1719 277.766C95.4141 277.766 93.8555 277.426 92.4961 276.746C91.1602 276.043 90.0234 275.117 89.0859 273.969C88.1484 272.82 87.4336 271.508 86.9414 270.031C86.4727 268.531 86.2383 266.973 86.2383 265.355C86.2383 263.855 86.4727 262.391 86.9414 260.961C87.4102 259.508 88.0898 258.207 88.9805 257.059C89.8945 255.934 91.0078 255.02 92.3203 254.316C93.6562 253.613 95.1797 253.262 96.8906 253.262C99 253.262 100.734 253.742 102.094 254.703C103.453 255.641 104.344 257.188 104.766 259.344Z" fill="white"/>
</svg>
