<svg width="155" height="280" viewBox="0 0 155 280" fill="none" xmlns="http://www.w3.org/2000/svg">
<path fill-rule="evenodd" clip-rule="evenodd" d="M7.78125 40.2656C6.96875 40.2656 6.09375 40.2031 5.15625 40.0781C4.25 39.9531 3.40625 39.7656 2.625 39.5156C1.875 39.2656 1.25 38.9375 0.75 38.5312C0.25 38.125 0 37.6562 0 37.125C0 36.5312 0.203125 36.0469 0.609375 35.6719C1.04688 35.2656 1.64062 35.0625 2.39062 35.0625C3.14062 35.0625 3.82812 35.2188 4.45312 35.5312C5.07812 35.8438 5.65625 36.1719 6.1875 36.5156C6.625 36.7969 7.17188 37.0781 7.82812 37.3594C8.48438 37.6094 9.125 37.7188 9.75 37.6875C10.625 37.6562 11.4531 37.4219 12.2344 36.9844C13.0156 36.5156 13.6875 35.875 14.25 35.0625C14.8438 34.2188 15.2969 33.2344 15.6094 32.1094C15.9531 30.9844 16.125 29.75 16.125 28.4062C16.125 24.9062 15.0938 22.25 13.0312 20.4375C10.9688 18.625 7.8125 17.8281 3.5625 18.0469C3.03125 18.0781 2.60938 17.9531 2.29688 17.6719C1.98438 17.3594 1.92188 16.9375 2.10938 16.4062L6.98438 4.35938H20.4844L19.7812 7.5H9L6.23438 14.625C8.39062 14.5625 10.3438 14.8125 12.0938 15.375C13.875 15.9062 15.375 16.7188 16.5938 17.8125C17.8438 18.875 18.7969 20.1875 19.4531 21.75C20.1406 23.2812 20.4844 24.9844 20.4844 26.8594C20.4844 28.6719 20.1562 30.3906 19.5 32.0156C18.875 33.6406 18 35.0625 16.875 36.2812C15.75 37.5 14.4062 38.4688 12.8438 39.1875C11.2812 39.9062 9.59375 40.2656 7.78125 40.2656ZM40.8281 27.8438C39.7031 27.6562 38.6562 27.3438 37.6875 26.9062C36.7188 26.4375 35.875 25.875 35.1562 25.2188C34.4688 24.5625 33.9219 23.8438 33.5156 23.0625C33.1406 22.25 32.9531 21.3906 32.9531 20.4844C32.9531 19.4219 33.2031 18.4375 33.7031 17.5312C34.2344 16.625 34.9531 15.8438 35.8594 15.1875C36.7656 14.5312 37.8125 14.0312 39 13.6875C40.2188 13.3125 41.5312 13.125 42.9375 13.125C44.4375 13.125 45.7969 13.3281 47.0156 13.7344C48.2344 14.1406 49.2812 14.6875 50.1562 15.375C51.0625 16.0312 51.75 16.8125 52.2188 17.7188C52.7188 18.5938 52.9688 19.5156 52.9688 20.4844C52.9688 21.3906 52.7656 22.25 52.3594 23.0625C51.9844 23.8438 51.4531 24.5625 50.7656 25.2188C50.1094 25.8438 49.2969 26.3906 48.3281 26.8594C47.3906 27.2969 46.3594 27.6094 45.2344 27.7969V32.1562C47.7656 31.875 50.2031 31.5469 52.5469 31.1719C54.8906 30.7969 57.0781 30.3906 59.1094 29.9531V5.76562C59.1094 4.79688 58.6406 4.01562 57.7031 3.42188C56.7969 2.79688 55.3125 2.23438 53.25 1.73438L54.0469 0C54.7969 0.09375 55.625 0.21875 56.5312 0.375C57.4375 0.5 58.3438 0.65625 59.25 0.84375C60.1562 1 61.0156 1.15625 61.8281 1.3125C62.6719 1.46875 63.4062 1.59375 64.0312 1.6875C63.9688 1.96875 63.9062 2.3125 63.8438 2.71875C63.7812 3.125 63.7188 3.54688 63.6562 3.98438C63.625 4.39062 63.5938 4.76562 63.5625 5.10938C63.5312 5.45312 63.5156 5.70312 63.5156 5.85938V31.8281C63.5156 32.7969 63.4844 33.9219 63.4219 35.2031C63.3906 36.4531 63.3281 37.7188 63.2344 39C63.1719 40.25 63.0938 41.4375 63 42.5625C62.9062 43.7188 62.7969 44.6406 62.6719 45.3281L59.4844 45.75C59.4219 45.25 59.375 44.5781 59.3438 43.7344C59.3125 42.8906 59.2656 41.9844 59.2031 41.0156C59.1719 40.0781 59.1406 39.1094 59.1094 38.1094V35.2031V32.0156C57.1719 32.4531 55.1719 32.8594 53.1094 33.2344C51.0469 33.6094 49 33.9531 46.9688 34.2656C44.9375 34.5781 42.9844 34.8438 41.1094 35.0625C39.2344 35.2812 37.5469 35.4531 36.0469 35.5781C35.7344 35.6094 35.2812 35.6562 34.6875 35.7188C34.0938 35.75 33.4375 35.8125 32.7188 35.9062C32.0312 35.9688 31.3281 36.0469 30.6094 36.1406C29.9219 36.2031 29.3125 36.2812 28.7812 36.375L26.3906 32.4375C26.8906 32.5312 27.4844 32.6094 28.1719 32.6719C28.8594 32.7344 29.5625 32.7969 30.2812 32.8594C31 32.9219 31.6875 32.9688 32.3438 33H33.9844L37.3594 32.8125C38.5156 32.7188 39.6719 32.6406 40.8281 32.5781V27.8438ZM37.5938 20.3438C37.5938 21.0312 37.7344 21.6875 38.0156 22.3125C38.2969 22.9062 38.6875 23.4375 39.1875 23.9062C39.6875 24.375 40.25 24.75 40.875 25.0312C41.5312 25.3125 42.2344 25.4531 42.9844 25.4531C43.6719 25.4531 44.3281 25.3281 44.9531 25.0781C45.6094 24.7969 46.1719 24.4375 46.6406 24C47.1406 23.5312 47.5312 22.9844 47.8125 22.3594C48.0938 21.7344 48.2344 21.0625 48.2344 20.3438C48.2344 19.6875 48.0938 19.0625 47.8125 18.4688C47.5312 17.875 47.1562 17.3438 46.6875 16.875C46.2188 16.4062 45.6562 16.0312 45 15.75C44.375 15.4688 43.7031 15.3281 42.9844 15.3281C42.2344 15.3281 41.5312 15.4531 40.875 15.7031C40.25 15.9531 39.6875 16.3125 39.1875 16.7812C38.6875 17.2188 38.2969 17.75 38.0156 18.375C37.7344 18.9688 37.5938 19.625 37.5938 20.3438ZM49.0312 6.23438H47.25C46.625 6.23438 45.9844 6.25 45.3281 6.28125C44.7031 6.28125 44.0938 6.29688 43.5 6.32812H42C41.7812 6.32812 41.4688 6.34375 41.0625 6.375C40.6562 6.375 40.2031 6.40625 39.7031 6.46875C39.2344 6.5 38.75 6.54688 38.25 6.60938C37.75 6.64062 37.2969 6.6875 36.8906 6.75L35.0625 3.23438C35.4062 3.32812 35.8594 3.42188 36.4219 3.51562C36.9844 3.57812 37.5625 3.65625 38.1562 3.75C38.7812 3.8125 39.375 3.875 39.9375 3.9375C40.5312 3.96875 41.0156 3.98438 41.3906 3.98438C41.7656 3.98438 42.2812 3.96875 42.9375 3.9375C43.5938 3.90625 44.2969 3.85938 45.0469 3.79688C45.8281 3.70312 46.625 3.625 47.4375 3.5625C48.2812 3.46875 49.0625 3.375 49.7812 3.28125L49.0312 6.23438ZM55.875 11.25H53.25C52.2188 11.25 51.0938 11.2656 49.875 11.2969C48.6875 11.3281 47.4531 11.3594 46.1719 11.3906C44.8906 11.4219 43.6562 11.4531 42.4688 11.4844C41.2812 11.5156 40.1875 11.5469 39.1875 11.5781C38.1875 11.6094 37.3594 11.6406 36.7031 11.6719C36.3281 11.7031 35.8438 11.75 35.25 11.8125C34.6562 11.8438 34.0312 11.8906 33.375 11.9531C32.7188 12.0156 32.0938 12.0781 31.5 12.1406C30.9062 12.2031 30.4219 12.2656 30.0469 12.3281L28.1719 8.48438C28.6094 8.57812 29.1406 8.67188 29.7656 8.76562C30.4219 8.82812 31.0781 8.90625 31.7344 9C32.3906 9.0625 33.0312 9.125 33.6562 9.1875C34.3125 9.21875 34.8594 9.23438 35.2969 9.23438C36.3594 9.23438 37.7656 9.20312 39.5156 9.14062C41.2656 9.07812 43.1406 9 45.1406 8.90625C47.1406 8.78125 49.1406 8.64062 51.1406 8.48438C53.1406 8.29688 54.9062 8.0625 56.4375 7.78125L55.875 11.25ZM95.3906 35.3906C96.6719 35.3281 97.8281 35.2812 98.8594 35.25C99.9219 35.2188 100.812 35.1875 101.531 35.1562C103.625 35.0625 105.75 34.9219 107.906 34.7344C110.094 34.5156 112.031 34.2812 113.719 34.0312L113.156 37.875C111.906 37.8125 110.281 37.7656 108.281 37.7344C106.281 37.7031 104.234 37.6719 102.141 37.6406C101.266 37.6406 100.203 37.6562 98.9531 37.6875C97.7031 37.6875 96.3438 37.7188 94.875 37.7812C93.4375 37.8125 91.9531 37.8594 90.4219 37.9219C88.9219 37.9531 87.4844 38 86.1094 38.0625C84.7344 38.0938 83.4844 38.1406 82.3594 38.2031C81.2656 38.2656 80.4062 38.3125 79.7812 38.3438C78.5938 38.4062 77.3281 38.5 75.9844 38.625C74.6406 38.75 73.3906 38.8906 72.2344 39.0469L70.7344 34.9219C72.1406 35.0781 73.625 35.2188 75.1875 35.3438C76.7812 35.4375 78.2969 35.5156 79.7344 35.5781C80.3281 35.6094 81.0312 35.625 81.8438 35.625H84.5625H87.7031L90.9844 35.5312V24.6094C89.7031 24.6094 88.4688 24.625 87.2812 24.6562C86.125 24.6562 85.0781 24.6719 84.1406 24.7031C84.0781 25.2969 83.9844 25.8906 83.8594 26.4844L80.9531 27C80.7969 26.375 80.625 25.6094 80.4375 24.7031C80.2812 23.7969 80.1719 22.9375 80.1094 22.125L79.3125 10.5C79.25 9.9375 79.1719 9.48438 79.0781 9.14062C79.0156 8.76562 78.875 8.46875 78.6562 8.25C78.4688 8.03125 78.1562 7.84375 77.7188 7.6875C77.3125 7.53125 76.7656 7.35938 76.0781 7.17188L76.8281 5.48438C78.8594 5.73438 81.1094 5.90625 83.5781 6C86.0781 6.0625 88.6094 6.07812 91.1719 6.04688C93.7656 6.01562 96.3125 5.9375 98.8125 5.8125C101.312 5.6875 103.609 5.54688 105.703 5.39062C105.578 6.20312 105.438 7.29688 105.281 8.67188C105.156 10.0469 105.031 11.5156 104.906 13.0781C104.781 14.6406 104.656 16.1875 104.531 17.7188C104.406 19.2188 104.312 20.5156 104.25 21.6094C104.625 21.5781 104.969 21.5469 105.281 21.5156C105.625 21.4844 105.938 21.4531 106.219 21.4219L105.375 24.7969C104.25 24.7344 102.797 24.6875 101.016 24.6562C99.2656 24.5938 97.3906 24.5625 95.3906 24.5625V35.3906ZM100.734 8.39062C99.7656 8.35938 98.4844 8.34375 96.8906 8.34375C95.3281 8.3125 93.7188 8.3125 92.0625 8.34375C90.4062 8.375 88.8125 8.42188 87.2812 8.48438C85.7812 8.51562 84.6094 8.5625 83.7656 8.625L84.2812 21.2344V21.75C84.3125 21.9375 84.3125 22.125 84.2812 22.3125C85.4062 22.3125 86.6406 22.2969 87.9844 22.2656C89.3281 22.2344 90.7031 22.2031 92.1094 22.1719C93.5469 22.1094 94.9688 22.0625 96.375 22.0312C97.8125 21.9688 99.1562 21.9062 100.406 21.8438L100.734 8.39062ZM135.469 15.7969C137.062 17.0156 138.734 18.1562 140.484 19.2188C142.234 20.25 144.172 21.2969 146.297 22.3594L142.875 25.4062C141.375 24.0312 139.875 22.7031 138.375 21.4219C136.906 20.1094 135.359 18.7969 133.734 17.4844C131.484 19.6406 129.062 21.5469 126.469 23.2031C123.906 24.8281 121.406 26.1562 118.969 27.1875L117.844 25.6406C119.875 24.6406 121.812 23.5 123.656 22.2188C125.5 20.9062 127.203 19.5 128.766 18C130.328 16.4688 131.719 14.8594 132.938 13.1719C134.188 11.4531 135.219 9.6875 136.031 7.875C135.562 7.875 135.031 7.89062 134.438 7.92188C133.844 7.95312 133.234 7.98438 132.609 8.01562C131.984 8.04688 131.375 8.07812 130.781 8.10938C130.188 8.14062 129.672 8.15625 129.234 8.15625C128.891 8.15625 128.438 8.1875 127.875 8.25C127.344 8.28125 126.75 8.34375 126.094 8.4375C125.438 8.5 124.781 8.57812 124.125 8.67188C123.469 8.73438 122.875 8.79688 122.344 8.85938L119.953 5.15625C120.328 5.21875 120.812 5.29688 121.406 5.39062C122.031 5.45312 122.688 5.51562 123.375 5.57812C124.094 5.64062 124.781 5.70312 125.438 5.76562C126.125 5.79688 126.734 5.8125 127.266 5.8125C129.578 5.84375 131.922 5.76562 134.297 5.57812C136.703 5.39062 138.797 5.07812 140.578 4.64062L142.078 6.04688C141.328 7.89062 140.391 9.625 139.266 11.25C138.141 12.875 136.875 14.3906 135.469 15.7969ZM144.234 0C144.984 0.09375 145.812 0.21875 146.719 0.375C147.625 0.5 148.531 0.65625 149.438 0.84375C150.344 1 151.203 1.15625 152.016 1.3125C152.859 1.46875 153.594 1.59375 154.219 1.6875C154.156 1.96875 154.094 2.3125 154.031 2.71875C153.969 3.125 153.906 3.54688 153.844 3.98438C153.781 4.39062 153.734 4.76562 153.703 5.10938C153.672 5.45312 153.656 5.70312 153.656 5.85938V17.0625C153.656 17.625 153.625 18.2812 153.562 19.0312C153.531 19.7812 153.469 20.5312 153.375 21.2812C153.312 22.0312 153.234 22.75 153.141 23.4375C153.047 24.0938 152.953 24.625 152.859 25.0312L149.625 25.4531C149.562 25.1406 149.516 24.7344 149.484 24.2344C149.453 23.7344 149.406 23.2188 149.344 22.6875C149.312 22.125 149.281 21.5781 149.25 21.0469V19.5938V5.76562C149.25 4.79688 148.781 4.01562 147.844 3.42188C146.938 2.79688 145.453 2.23438 143.391 1.73438L144.234 0ZM149.25 42.9375C147.156 42.8438 144.922 42.8438 142.547 42.9375C140.203 43.0312 137.797 43.125 135.328 43.2188C135.266 43.5 135.203 43.7656 135.141 44.0156C135.109 44.2969 135.062 44.5469 135 44.7656L131.906 45.2812C131.812 44.6562 131.719 43.875 131.625 42.9375C131.562 42.0312 131.531 41.1406 131.531 40.2656V31.9688C131.531 31.4688 131.484 31.0469 131.391 30.7031C131.297 30.3594 131.109 30.0625 130.828 29.8125C130.547 29.5312 130.156 29.2969 129.656 29.1094C129.156 28.9219 128.484 28.7344 127.641 28.5469L128.438 26.9531C128.969 27.0156 129.562 27.0781 130.219 27.1406C130.875 27.2031 131.547 27.2812 132.234 27.375C132.953 27.4688 133.656 27.5781 134.344 27.7031C135.062 27.8281 135.734 27.9531 136.359 28.0781C136.297 28.3594 136.234 28.6875 136.172 29.0625L135.984 30.1875C135.953 30.5312 135.922 30.8594 135.891 31.1719C135.859 31.4844 135.844 31.7344 135.844 31.9219V32.625C137.969 32.5625 140.125 32.4844 142.312 32.3906C144.531 32.2969 146.781 32.1562 149.062 31.9688V30.4688C149.062 30 149 29.5938 148.875 29.25C148.75 28.9062 148.531 28.6094 148.219 28.3594C147.906 28.1094 147.469 27.8906 146.906 27.7031C146.375 27.4844 145.688 27.2656 144.844 27.0469L145.547 25.3125C146.828 25.4688 148.234 25.6562 149.766 25.875C151.297 26.0625 152.688 26.2812 153.938 26.5312C153.875 26.8125 153.797 27.1562 153.703 27.5625L153.516 28.6875C153.484 29.0625 153.453 29.4062 153.422 29.7188C153.391 30.0312 153.375 30.2656 153.375 30.4219V37.6406C153.375 39.0469 153.281 40.3125 153.094 41.4375C152.906 42.5938 152.734 43.5312 152.578 44.25L149.484 44.7188C149.422 44.4688 149.375 44.1875 149.344 43.875C149.344 43.5938 149.312 43.2812 149.25 42.9375ZM149.062 39.6562V34.7812C144.719 34.625 140.312 34.7188 135.844 35.0625V38.25C135.844 38.6875 135.828 39.125 135.797 39.5625C135.766 39.9688 135.719 40.3594 135.656 40.7344C137.844 40.6719 140.078 40.5938 142.359 40.5C144.672 40.4375 146.906 40.3281 149.062 40.1719V39.6562ZM123.099 88.1179H64.2615L55.206 102.962C51.7619 108.608 49.1354 114.713 47.4048 121.096L45.4249 128.398C45.3795 128.565 45.3355 128.733 45.2929 128.901L45.1422 128.677C33.6534 136.421 25.0897 147.791 20.8176 160.971C16.5456 174.151 16.8114 188.382 21.5728 201.394C26.3341 214.405 35.3164 225.447 47.0864 232.757C58.8564 240.066 72.7357 243.223 86.5095 241.723C100.283 240.223 113.158 234.153 123.078 224.48C132.999 214.808 139.394 202.092 141.242 188.361C143.091 174.629 140.287 160.674 133.278 148.723C126.979 137.982 117.61 129.416 106.424 124.097L107.465 120.175C108.999 114.398 111.275 108.844 114.237 103.653L123.099 88.1179ZM105.444 127.786L104.953 129.637C104.045 133.057 103.889 136.633 104.495 140.12L104.548 140.427C105.292 144.703 107.21 148.688 110.089 151.937C113.881 156.216 115.975 161.737 115.975 167.455V169.491C115.975 171.884 115.677 174.267 115.087 176.585L112.282 187.608H47.3753L51.3176 177.751C52.5479 174.674 53.1799 171.392 53.1799 168.079C53.1799 163.249 51.837 158.514 49.301 154.403L48.7946 153.582C46.6409 150.091 45.2403 146.188 44.6826 142.124L44.5872 141.429C44.2392 138.893 44.1904 136.331 44.4374 133.795C35.0508 140.965 28.0419 150.839 24.3833 162.127C20.3696 174.51 20.6193 187.881 25.0928 200.106C29.5662 212.33 38.0056 222.705 49.064 229.572C60.1224 236.44 73.1626 239.406 86.1037 237.997C99.0447 236.587 111.141 230.884 120.462 221.797C129.782 212.709 135.791 200.762 137.528 187.86C139.265 174.959 136.63 161.848 130.045 150.619C124.245 140.73 115.676 132.803 105.444 127.786ZM47.6094 274.707V251.328L40.3672 255.23V256.777C41.3516 256.379 42.1133 256.086 42.6523 255.898C43.2148 255.688 43.625 255.605 43.8828 255.652C44.1641 255.699 44.3281 255.875 44.375 256.18C44.4453 256.484 44.4805 256.93 44.4805 257.516V274.637C44.4805 275.293 44.375 275.797 44.1641 276.148C43.9766 276.5 43.707 276.77 43.3555 276.957C43.0273 277.121 42.6289 277.227 42.1602 277.273C41.6914 277.297 41.1875 277.32 40.6484 277.344V278.75H51.4414V277.379C50.8086 277.355 50.2461 277.32 49.7539 277.273C49.2852 277.227 48.8867 277.121 48.5586 276.957C48.2539 276.77 48.0195 276.512 47.8555 276.184C47.6914 275.832 47.6094 275.34 47.6094 274.707ZM56.9609 260.469C56.6562 262.133 56.5039 263.867 56.5039 265.672C56.5039 267.5 56.6562 269.246 56.9609 270.91C57.2891 272.551 57.7812 274.004 58.4375 275.27C59.1172 276.512 59.9844 277.508 61.0391 278.258C62.0938 278.984 63.3477 279.348 64.8008 279.348C66.2539 279.348 67.5078 278.973 68.5625 278.223C69.6172 277.473 70.4844 276.477 71.1641 275.234C71.8438 273.969 72.3477 272.516 72.6758 270.875C73.0039 269.211 73.168 267.465 73.168 265.637C73.168 263.832 73.0039 262.098 72.6758 260.434C72.3711 258.77 71.8789 257.305 71.1992 256.039C70.5195 254.773 69.6523 253.766 68.5977 253.016C67.543 252.266 66.2773 251.891 64.8008 251.891C63.3477 251.891 62.0938 252.277 61.0391 253.051C59.9844 253.801 59.1172 254.809 58.4375 256.074C57.7812 257.34 57.2891 258.805 56.9609 260.469ZM66.9453 276.852C66.3125 277.438 65.5977 277.73 64.8008 277.73C64.0273 277.73 63.3359 277.438 62.7266 276.852C62.1172 276.242 61.5898 275.41 61.1445 274.355C60.7227 273.277 60.3945 272 60.1602 270.523C59.9492 269.023 59.8438 267.395 59.8438 265.637C59.8438 263.879 59.9492 262.262 60.1602 260.785C60.3945 259.285 60.7227 257.996 61.1445 256.918C61.5664 255.816 62.082 254.961 62.6914 254.352C63.3008 253.742 64.0039 253.438 64.8008 253.438C65.5977 253.438 66.3125 253.754 66.9453 254.387C67.5781 254.996 68.1055 255.852 68.5273 256.953C68.9492 258.031 69.2656 259.32 69.4766 260.82C69.7109 262.32 69.8281 263.938 69.8281 265.672C69.8281 267.43 69.7109 269.047 69.4766 270.523C69.2656 272 68.9492 273.277 68.5273 274.355C68.1055 275.41 67.5781 276.242 66.9453 276.852ZM76.2969 260.469C75.9922 262.133 75.8398 263.867 75.8398 265.672C75.8398 267.5 75.9922 269.246 76.2969 270.91C76.625 272.551 77.1172 274.004 77.7734 275.27C78.4531 276.512 79.3203 277.508 80.375 278.258C81.4297 278.984 82.6836 279.348 84.1367 279.348C85.5898 279.348 86.8438 278.973 87.8984 278.223C88.9531 277.473 89.8203 276.477 90.5 275.234C91.1797 273.969 91.6836 272.516 92.0117 270.875C92.3398 269.211 92.5039 267.465 92.5039 265.637C92.5039 263.832 92.3398 262.098 92.0117 260.434C91.707 258.77 91.2148 257.305 90.5352 256.039C89.8555 254.773 88.9883 253.766 87.9336 253.016C86.8789 252.266 85.6133 251.891 84.1367 251.891C82.6836 251.891 81.4297 252.277 80.375 253.051C79.3203 253.801 78.4531 254.809 77.7734 256.074C77.1172 257.34 76.625 258.805 76.2969 260.469ZM86.2812 276.852C85.6484 277.438 84.9336 277.73 84.1367 277.73C83.3633 277.73 82.6719 277.438 82.0625 276.852C81.4531 276.242 80.9258 275.41 80.4805 274.355C80.0586 273.277 79.7305 272 79.4961 270.523C79.2852 269.023 79.1797 267.395 79.1797 265.637C79.1797 263.879 79.2852 262.262 79.4961 260.785C79.7305 259.285 80.0586 257.996 80.4805 256.918C80.9023 255.816 81.418 254.961 82.0273 254.352C82.6367 253.742 83.3398 253.438 84.1367 253.438C84.9336 253.438 85.6484 253.754 86.2812 254.387C86.9141 254.996 87.4414 255.852 87.8633 256.953C88.2852 258.031 88.6016 259.32 88.8125 260.82C89.0469 262.32 89.1641 263.938 89.1641 265.672C89.1641 267.43 89.0469 269.047 88.8125 270.523C88.6016 272 88.2852 273.277 87.8633 274.355C87.4414 275.41 86.9141 276.242 86.2812 276.852ZM117.992 259.344H119.504L118.801 253.684C117.254 253.121 115.742 252.652 114.266 252.277C112.812 251.879 111.254 251.68 109.59 251.68C107.691 251.68 105.91 252.043 104.246 252.77C102.582 253.473 101.141 254.445 99.9219 255.688C98.6797 256.93 97.707 258.406 97.0039 260.117C96.3008 261.805 95.9492 263.633 95.9492 265.602C95.9492 267.477 96.2891 269.246 96.9688 270.91C97.6484 272.574 98.6094 274.027 99.8516 275.27C101.07 276.512 102.547 277.496 104.281 278.223C106.016 278.926 107.926 279.277 110.012 279.277C111.629 279.277 113.176 279.102 114.652 278.75C116.152 278.375 117.734 277.824 119.398 277.098V276.148L118.836 275.551V270.875C118.836 269.75 119.047 269.047 119.469 268.766C119.914 268.484 120.57 268.344 121.438 268.344V267.043C120.898 267.066 120.23 267.09 119.434 267.113H116.938H114.371C113.551 267.09 112.848 267.066 112.262 267.043V268.379C113.504 268.379 114.371 268.52 114.863 268.801C115.379 269.059 115.637 269.75 115.637 270.875V276.289C115.496 276.406 115.285 276.547 115.004 276.711C114.746 276.875 114.406 277.039 113.984 277.203C113.562 277.344 113.059 277.473 112.473 277.59C111.887 277.707 111.195 277.766 110.398 277.766C108.641 277.766 107.082 277.426 105.723 276.746C104.387 276.043 103.25 275.117 102.312 273.969C101.375 272.82 100.66 271.508 100.168 270.031C99.6992 268.531 99.4648 266.973 99.4648 265.355C99.4648 263.855 99.6992 262.391 100.168 260.961C100.637 259.508 101.316 258.207 102.207 257.059C103.121 255.934 104.234 255.02 105.547 254.316C106.883 253.613 108.406 253.262 110.117 253.262C112.227 253.262 113.961 253.742 115.32 254.703C116.68 255.641 117.57 257.188 117.992 259.344Z" fill="#FFCC00"/>
</svg>
