<svg width="167" height="268" viewBox="0 0 167 268" fill="none" xmlns="http://www.w3.org/2000/svg">
<path fill-rule="evenodd" clip-rule="evenodd" d="M154.687 0L166.179 11.4919L157.77 19.9006L155.808 17.9386L123.855 49.8916L140.572 66.6079L140.658 66.517C153.35 78.5149 161.955 94.1957 165.258 111.347C168.378 127.55 166.616 144.292 160.231 159.461L160.433 160.045L160.04 159.909C159.726 160.645 159.4 161.377 159.063 162.106C151.733 177.959 139.609 191.11 124.404 199.703C109.198 208.296 91.6774 211.897 74.315 209.998C56.9526 208.099 40.6249 200.796 27.6362 189.119C14.6474 177.442 5.6534 161.981 1.92343 144.918C-1.80653 127.855 -0.0841225 110.052 6.84759 94.0204C12.6031 80.7093 21.7086 69.1778 33.2117 60.5127L43.8328 49.8915L11.8798 17.9385L9.35714 20.4611L0.948456 12.0524L12.4403 0.56055L20.849 8.96924L18.887 10.9312L50.8401 42.8843L67.9378 25.7866L75.2253 33.0742L65.6954 42.6041L83.2835 60.1921L101.432 42.0434L92.4629 33.0741L99.7504 25.7866L116.848 42.8844L148.801 10.9314L146.279 8.40869L154.687 0ZM133.665 74.2767L137.486 70.4566C149.252 81.6931 157.23 96.317 160.308 112.3C162.868 125.597 161.929 139.281 157.653 152.028L148.381 125.289L105.987 82.8956L124.136 64.7469L133.665 74.2767ZM125.677 147.993L155.265 158.253C155.013 158.835 154.754 159.414 154.488 159.99C147.6 174.885 136.21 187.241 121.923 195.315C107.637 203.388 91.1758 206.772 74.8631 204.987C58.5504 203.203 43.2098 196.341 31.0063 185.37C22.4822 177.707 15.7893 168.31 11.334 157.876L41.4502 147.432L83.2835 105.599L125.677 147.993ZM18.7467 124.729L9.1932 152.279C8.25815 149.522 7.47418 146.706 6.84807 143.842C3.3436 127.81 4.96188 111.083 11.4745 96.021C15.7482 86.1369 21.9879 77.2972 29.7519 70.0059L34.0227 74.2767L42.9919 65.3075L60.58 82.8956L18.7467 124.729ZM70.6717 257.359C69.6405 257.391 68.4842 257.438 67.203 257.5V246.672C69.203 246.672 71.078 246.703 72.828 246.766C74.6092 246.797 76.0623 246.844 77.1873 246.906L78.0311 243.531C77.7498 243.562 77.4373 243.594 77.0936 243.625C76.7811 243.656 76.4373 243.688 76.0623 243.719C76.1248 242.625 76.2186 241.328 76.3436 239.828C76.4686 238.297 76.5936 236.75 76.7186 235.188C76.8436 233.625 76.9686 232.156 77.0936 230.781C77.2498 229.406 77.3905 228.312 77.5155 227.5C75.4217 227.656 73.1248 227.797 70.6248 227.922C68.1248 228.047 65.578 228.125 62.9842 228.156C60.4217 228.188 57.8905 228.172 55.3905 228.109C52.9217 228.016 50.6717 227.844 48.6405 227.594L47.8905 229.281C48.578 229.469 49.1248 229.641 49.5311 229.797C49.9686 229.953 50.2811 230.141 50.4686 230.359C50.6873 230.578 50.828 230.875 50.8905 231.25C50.9842 231.594 51.0623 232.047 51.1248 232.609L51.9217 244.234C51.9842 245.047 52.0936 245.906 52.2498 246.812C52.4373 247.719 52.6092 248.484 52.7655 249.109L55.6717 248.594C55.7967 248 55.8905 247.406 55.953 246.812C56.8905 246.781 57.9373 246.766 59.0936 246.766C60.2811 246.734 61.5155 246.719 62.7967 246.719V257.641L59.5155 257.734H56.3748H53.6561C52.8436 257.734 52.1405 257.719 51.5467 257.688C50.1092 257.625 48.5936 257.547 46.9998 257.453C45.4373 257.328 43.953 257.188 42.5467 257.031L44.0467 261.156C45.203 261 46.453 260.859 47.7967 260.734C49.1405 260.609 50.4061 260.516 51.5936 260.453C52.2186 260.422 53.078 260.375 54.1717 260.312C55.2967 260.25 56.5467 260.203 57.9217 260.172C59.2967 260.109 60.7342 260.062 62.2342 260.031C63.7655 259.969 65.2498 259.922 66.6873 259.891C68.1561 259.828 69.5155 259.797 70.7655 259.797C72.0155 259.766 73.078 259.75 73.953 259.75C76.0467 259.781 78.0936 259.812 80.0936 259.844C82.0936 259.875 83.7186 259.922 84.9686 259.984L85.5311 256.141C83.8436 256.391 81.9061 256.625 79.7186 256.844C77.5623 257.031 75.4373 257.172 73.3436 257.266C72.6248 257.297 71.7342 257.328 70.6717 257.359ZM68.703 230.453C70.2967 230.453 71.578 230.469 72.5467 230.5L72.2186 243.953C70.9686 244.016 69.6248 244.078 68.1873 244.141C66.7811 244.172 65.3592 244.219 63.9217 244.281C62.5155 244.312 61.1405 244.344 59.7967 244.375C58.453 244.406 57.2186 244.422 56.0936 244.422C56.1248 244.234 56.1248 244.047 56.0936 243.859V243.344L55.578 230.734C56.4217 230.672 57.5936 230.625 59.0936 230.594C60.6248 230.531 62.2186 230.484 63.8748 230.453C65.5311 230.422 67.1405 230.422 68.703 230.453ZM110.375 247.844C111.25 247.219 111.953 246.5 112.484 245.688C113.015 244.844 113.328 243.938 113.422 242.969C114.422 242.812 115.562 242.688 116.844 242.594C118.156 242.469 119.5 242.375 120.875 242.312V244.234V245.734L120.969 247.328C121.031 247.859 121.078 248.375 121.109 248.875C121.14 249.375 121.187 249.797 121.25 250.141L124.484 249.672C124.578 249.266 124.672 248.734 124.765 248.078C124.859 247.391 124.937 246.672 125 245.922C125.094 245.172 125.156 244.438 125.187 243.719C125.25 242.969 125.281 242.312 125.281 241.75V227.969C125.281 227.812 125.297 227.562 125.328 227.219C125.359 226.875 125.39 226.5 125.422 226.094C125.484 225.656 125.547 225.234 125.609 224.828C125.703 224.422 125.781 224.078 125.844 223.797C125.219 223.703 124.484 223.578 123.64 223.422C122.828 223.266 121.969 223.109 121.062 222.953C120.156 222.766 119.25 222.609 118.344 222.484C117.437 222.328 116.609 222.203 115.859 222.109L115.015 223.844C117.078 224.344 118.562 224.906 119.469 225.531C120.406 226.125 120.875 226.906 120.875 227.875V239.969C120.156 240 119.422 240.031 118.672 240.062H116.609C116.078 240.094 115.484 240.094 114.828 240.062L112.953 239.875C112.39 238.375 111.297 237.141 109.672 236.172C108.047 235.172 106.078 234.672 103.765 234.672C102.422 234.672 101.156 234.859 99.9686 235.234C98.8123 235.609 97.7811 236.141 96.8748 236.828C95.9998 237.516 95.2967 238.328 94.7655 239.266C94.2655 240.172 94.0155 241.188 94.0155 242.312C94.0155 243.312 94.2655 244.281 94.7655 245.219C95.2967 246.125 95.9998 246.922 96.8748 247.609C97.7498 248.297 98.7811 248.844 99.9686 249.25C101.156 249.656 102.422 249.859 103.765 249.859C105.078 249.859 106.297 249.688 107.422 249.344C108.547 248.969 109.531 248.469 110.375 247.844ZM99.078 244.141C98.828 243.484 98.703 242.797 98.703 242.078C98.703 240.484 99.1873 239.203 100.156 238.234C101.156 237.266 102.359 236.781 103.765 236.781C104.515 236.781 105.203 236.922 105.828 237.203C106.453 237.484 106.984 237.875 107.422 238.375C107.89 238.875 108.25 239.453 108.5 240.109C108.75 240.734 108.875 241.391 108.875 242.078C108.875 243.609 108.375 244.875 107.375 245.875C106.406 246.875 105.203 247.375 103.765 247.375C103.047 247.375 102.375 247.234 101.75 246.953C101.156 246.672 100.625 246.297 100.156 245.828C99.7186 245.328 99.3592 244.766 99.078 244.141ZM108.312 227.922H110.047L110.797 224.875C110.078 224.969 109.312 225.062 108.5 225.156C107.687 225.25 106.89 225.344 106.109 225.438C105.359 225.5 104.656 225.547 104 225.578C103.375 225.609 102.875 225.625 102.5 225.625C102.094 225.625 101.594 225.609 101 225.578C100.437 225.516 99.8436 225.453 99.2186 225.391C98.6248 225.297 98.0467 225.203 97.4842 225.109C96.9217 225.016 96.453 224.922 96.078 224.828L97.9998 228.391C98.3748 228.328 98.8123 228.281 99.3123 228.25C99.8123 228.188 100.297 228.141 100.765 228.109C101.265 228.078 101.719 228.062 102.125 228.062C102.562 228.031 102.89 228.016 103.109 228.016H104.562C105.156 227.984 105.765 227.969 106.39 227.969C107.047 227.938 107.687 227.922 108.312 227.922ZM114.359 232.938H116.984L117.547 229.516C116.015 229.797 114.234 230.031 112.203 230.219C110.203 230.375 108.203 230.516 106.203 230.641C104.203 230.734 102.312 230.812 100.531 230.875C98.7811 230.906 97.3748 230.922 96.3123 230.922C95.8748 230.922 95.328 230.906 94.6717 230.875C94.0467 230.812 93.4061 230.75 92.7498 230.688C92.0936 230.625 91.453 230.562 90.828 230.5C90.203 230.406 89.6717 230.312 89.2342 230.219L91.0623 234.062C91.4373 234 91.9217 233.938 92.5155 233.875C93.1405 233.812 93.7811 233.75 94.4373 233.688C95.0936 233.625 95.7186 233.578 96.3123 233.547C96.9373 233.484 97.4373 233.438 97.8123 233.406C98.4686 233.375 99.2967 233.344 100.297 233.312C101.297 233.281 102.39 233.25 103.578 233.219C104.765 233.156 106 233.109 107.281 233.078C108.562 233.047 109.797 233.016 110.984 232.984C112.203 232.953 113.328 232.938 114.359 232.938ZM125.187 261.953C124.937 261.953 124.64 261.984 124.297 262.047C124.359 261.203 124.437 260.312 124.531 259.375L124.812 256.469C124.937 255.469 125.047 254.5 125.14 253.562C125.265 252.594 125.39 251.703 125.515 250.891C121.328 251.266 117.062 251.5 112.719 251.594C108.406 251.688 104.203 251.5 100.109 251.031L99.2655 252.672C99.9842 252.859 100.547 253.047 100.953 253.234C101.39 253.391 101.719 253.578 101.937 253.797C102.156 254.016 102.297 254.312 102.359 254.688C102.453 255.031 102.531 255.484 102.594 256.047L103.156 262.562C103.219 263.375 103.265 264.125 103.297 264.812C103.359 265.5 103.515 266.375 103.765 267.438L106.765 266.922C106.828 266.609 106.875 266.297 106.906 265.984C106.969 265.703 107.031 265.438 107.094 265.188C108.437 265.125 109.922 265.078 111.547 265.047C113.203 265.016 114.844 265 116.469 265C118.125 265.031 119.703 265.062 121.203 265.094C122.734 265.125 124.062 265.188 125.187 265.281L126.031 261.859L125.187 261.953ZM117.265 253.891C118.484 253.891 119.578 253.906 120.547 253.938L120.406 262.328C118.344 262.422 116.14 262.5 113.797 262.562C111.484 262.656 109.297 262.719 107.234 262.75V261.672L107.047 254.172C107.89 254.109 108.89 254.062 110.047 254.031C111.203 253.969 112.39 253.922 113.609 253.891C114.859 253.859 116.078 253.859 117.265 253.891Z" fill="white"/>
</svg>
