<svg width="240" height="266" viewBox="0 0 240 266" fill="none" xmlns="http://www.w3.org/2000/svg">
<path fill-rule="evenodd" clip-rule="evenodd" d="M62 23.8294L85.8899 0L106.567 33.7227L110.913 72.8665L100.468 62.3947L91.6767 71.1634L123.074 102.64L130.571 93.5887L123.655 86.6723L128.26 74.9518L134.538 51.9293L118.841 31.6277L143.957 6.51228L217.21 79.7656L215.326 102.997L239.186 121.415L217.628 126.648L197.572 132.81C197.726 135.319 197.76 137.84 197.672 140.365C197.206 153.769 193.309 166.829 186.356 178.298C179.403 189.767 169.625 199.262 157.956 205.875C146.288 212.487 133.118 215.998 119.706 216.07C106.294 216.142 93.0877 212.774 81.3485 206.288C69.6092 199.801 59.7293 190.413 52.6528 179.019C45.5762 167.626 41.5394 154.609 40.9279 141.21C40.5838 133.671 41.3309 126.152 43.1209 118.882L0 75.6518L28.0811 47.6418L37.2782 56.8622L66.1868 28.0268L62 23.8294ZM140.494 120.104L149.531 112.548L153.584 116.601L180.165 138.159L192.9 134.246C192.991 136.225 193.003 138.211 192.933 140.2C192.495 152.794 188.834 165.064 182.301 175.84C175.768 186.616 166.581 195.536 155.618 201.749C144.655 207.962 132.282 211.26 119.681 211.328C107.079 211.396 94.6714 208.232 83.6419 202.137C72.6123 196.043 63.3298 187.222 56.681 176.517C50.0323 165.813 46.2395 153.582 45.665 140.994C45.3863 134.888 45.8694 128.797 47.0853 122.857L50.1671 125.946L78.2482 97.9362L71.559 91.2301L82.4561 80.3607L114.729 112.715L114.429 113.077L59.1747 126.054L115.475 182.354L130.126 128.774L130.465 128.491L156.035 154.126L165.255 144.929L140.494 120.104ZM76.9688 226.484C77.125 226.859 77.2031 227.281 77.2031 227.75V245.328C72.6406 246.766 68.0938 247.766 63.5625 248.328C63.3125 248.391 63.0781 248.312 62.8594 248.094C62.6719 247.875 62.5781 247.5 62.5781 246.969V232.766C64.2656 232.609 66.0156 232.5 67.8281 232.438C69.6719 232.375 71.6875 232.406 73.875 232.531L74.625 228.969C73.25 229.219 71.7656 229.453 70.1719 229.672C68.5781 229.859 66.9375 230 65.25 230.094C63.5625 230.188 61.8281 230.203 60.0469 230.141C58.2656 230.078 56.5 229.906 54.75 229.625L53.9062 231.312C54.8125 231.562 55.5469 231.812 56.1094 232.062C56.6719 232.281 57.0938 232.547 57.375 232.859C57.6875 233.172 57.8906 233.547 57.9844 233.984C58.1094 234.391 58.1719 234.875 58.1719 235.438V247.953C58.1719 249.453 58.5156 250.531 59.2031 251.188C59.8906 251.812 61.0625 251.969 62.7188 251.656C65.4688 251.125 68.0312 250.484 70.4062 249.734C72.8125 248.984 75.0781 248.203 77.2031 247.391V253.672V256.531C77.2344 257.5 77.2656 258.453 77.2969 259.391C77.3281 260.328 77.3594 261.203 77.3906 262.016C77.4219 262.859 77.4531 263.578 77.4844 264.172L80.5781 263.797C80.7031 263.016 80.8125 262.047 80.9062 260.891C81.0312 259.734 81.125 258.531 81.1875 257.281C81.2812 256.031 81.3438 254.797 81.375 253.578C81.4375 252.328 81.4688 251.219 81.4688 250.25V242.375C82.375 242.312 83.25 242.266 84.0938 242.234L86.7188 242.141V255.312V258.172C86.75 259.141 86.7812 260.094 86.8125 261.031C86.8438 262 86.875 262.891 86.9062 263.703C86.9688 264.547 87.0156 265.266 87.0469 265.859L90.2344 265.438C90.3594 264.656 90.4688 263.688 90.5625 262.531C90.6562 261.406 90.7344 260.219 90.7969 258.969C90.8906 257.719 90.9531 256.484 90.9844 255.266C91.0469 254.016 91.0781 252.906 91.0781 251.938V225.969C91.0781 225.812 91.0938 225.562 91.125 225.219C91.1562 224.875 91.1875 224.5 91.2188 224.094C91.2812 223.688 91.3281 223.281 91.3594 222.875C91.4219 222.469 91.4844 222.125 91.5469 221.844C90.9531 221.719 90.2656 221.578 89.4844 221.422C88.7344 221.266 87.9375 221.109 87.0938 220.953C86.2812 220.797 85.4531 220.641 84.6094 220.484C83.7656 220.328 82.9688 220.203 82.2188 220.109L81.4688 221.844C83.4688 222.344 84.8438 222.906 85.5938 223.531C86.3438 224.125 86.7188 224.906 86.7188 225.875V239.516C85.875 239.609 85.0156 239.688 84.1406 239.75C83.2656 239.781 82.375 239.812 81.4688 239.844V227.938C81.4688 227.781 81.4844 227.531 81.5156 227.188C81.5469 226.844 81.5781 226.469 81.6094 226.062L81.7969 224.844C81.8906 224.438 81.9688 224.094 82.0312 223.812C80.7812 223.5 79.375 223.203 77.8125 222.922C76.2812 222.609 74.7344 222.359 73.1719 222.172L72.4688 223.859C73.4062 224.109 74.1875 224.359 74.8125 224.609C75.4375 224.859 75.9219 225.141 76.2656 225.453C76.6094 225.766 76.8438 226.109 76.9688 226.484ZM119.812 239.562C118.094 238.5 116.484 237.391 114.984 236.234C116.391 234.766 117.656 233.219 118.781 231.594C119.906 229.938 120.828 228.172 121.547 226.297L120.094 224.938C119.219 225.156 118.234 225.344 117.141 225.5C116.078 225.656 114.969 225.781 113.812 225.875C112.656 225.969 111.469 226.031 110.25 226.062C109.062 226.094 107.906 226.109 106.781 226.109C106.25 226.109 105.641 226.094 104.953 226.062C104.297 226 103.609 225.938 102.891 225.875C102.203 225.812 101.547 225.75 100.922 225.688C100.297 225.594 99.7969 225.516 99.4219 225.453L101.859 229.203C102.391 229.109 102.984 229.031 103.641 228.969C104.297 228.875 104.938 228.797 105.562 228.734C106.219 228.672 106.828 228.609 107.391 228.547C107.953 228.484 108.406 228.453 108.75 228.453C109.188 228.453 109.703 228.438 110.297 228.406C110.891 228.375 111.5 228.344 112.125 228.312C112.75 228.281 113.359 228.25 113.953 228.219C114.547 228.188 115.062 228.172 115.5 228.172C114.688 229.984 113.656 231.766 112.406 233.516C111.188 235.234 109.797 236.875 108.234 238.438C106.672 239.969 104.969 241.391 103.125 242.703C101.281 244.016 99.3594 245.156 97.3594 246.125L98.625 247.672C101.031 246.641 103.516 245.312 106.078 243.688C108.641 242.031 111.047 240.094 113.297 237.875C114.891 239.25 116.406 240.594 117.844 241.906C119.312 243.219 120.828 244.547 122.391 245.891L125.812 242.844C123.531 241.719 121.531 240.625 119.812 239.562ZM127.734 250.203C126.734 249.703 125.625 249.375 124.406 249.219C124.531 248.656 124.734 248.031 125.016 247.344C124.234 247.156 123.328 246.969 122.297 246.781C121.266 246.562 120.391 246.375 119.672 246.219L118.875 247.625C119.594 247.844 120.094 248.062 120.375 248.281C120.656 248.5 120.828 248.797 120.891 249.172C119.609 249.297 118.438 249.594 117.375 250.062C116.344 250.531 115.438 251.125 114.656 251.844C113.875 252.562 113.266 253.391 112.828 254.328C112.422 255.234 112.219 256.203 112.219 257.234C112.219 258.391 112.469 259.453 112.969 260.422C113.5 261.422 114.219 262.281 115.125 263C116.031 263.75 117.109 264.328 118.359 264.734C119.609 265.141 120.984 265.344 122.484 265.344C123.922 265.344 125.266 265.141 126.516 264.734C127.766 264.328 128.844 263.75 129.75 263C130.688 262.281 131.406 261.422 131.906 260.422C132.438 259.453 132.703 258.391 132.703 257.234C132.703 256.203 132.5 255.25 132.094 254.375C131.688 253.469 131.109 252.672 130.359 251.984C129.641 251.266 128.766 250.672 127.734 250.203ZM127.594 254.703C127.906 255.391 128.062 256.141 128.062 256.953C128.062 257.766 127.906 258.531 127.594 259.25C127.312 259.938 126.906 260.531 126.375 261.031C125.875 261.562 125.281 261.969 124.594 262.25C123.938 262.562 123.219 262.719 122.438 262.719C121.625 262.719 120.875 262.562 120.188 262.25C119.5 261.969 118.891 261.562 118.359 261.031C117.859 260.531 117.453 259.938 117.141 259.25C116.859 258.531 116.719 257.766 116.719 256.953C116.719 256.141 116.859 255.391 117.141 254.703C117.453 253.984 117.859 253.375 118.359 252.875C118.891 252.344 119.5 251.938 120.188 251.656C120.875 251.344 121.625 251.188 122.438 251.188C123.188 251.188 123.906 251.344 124.594 251.656C125.281 251.938 125.875 252.344 126.375 252.875C126.906 253.375 127.312 253.984 127.594 254.703ZM132.703 242.656C132.766 241.906 132.797 241.25 132.797 240.688V237.125H134.953H137.297H139.594C140.312 237.125 140.953 237.141 141.516 237.172L142.031 233.469C141.312 233.594 140.547 233.719 139.734 233.844C138.953 233.938 138.156 234.031 137.344 234.125C136.531 234.219 135.734 234.312 134.953 234.406C134.172 234.469 133.453 234.516 132.797 234.547V225.969C132.797 225.812 132.812 225.562 132.844 225.219C132.875 224.875 132.906 224.5 132.938 224.094C133 223.656 133.062 223.234 133.125 222.828C133.188 222.422 133.25 222.078 133.312 221.797C132.719 221.703 132.016 221.578 131.203 221.422C130.391 221.266 129.531 221.109 128.625 220.953C127.719 220.766 126.797 220.609 125.859 220.484C124.953 220.328 124.109 220.203 123.328 220.109L122.625 221.844C124.688 222.344 126.156 222.906 127.031 223.531C127.938 224.125 128.391 224.906 128.391 225.875V243.266V244.719C128.422 245.25 128.453 245.797 128.484 246.359C128.547 246.891 128.594 247.406 128.625 247.906C128.656 248.406 128.703 248.828 128.766 249.172L132.094 248.656C132.188 248.281 132.266 247.766 132.328 247.109C132.422 246.422 132.5 245.703 132.562 244.953C132.625 244.172 132.672 243.406 132.703 242.656ZM178.359 247.484C178.391 246.672 178.406 245.906 178.406 245.188V240.172H180.562H182.906H185.203C185.922 240.172 186.562 240.188 187.125 240.219L187.641 236.469C186.922 236.594 186.156 236.719 185.344 236.844C184.84 236.904 184.329 236.965 183.812 237.025C183.528 237.058 183.241 237.092 182.953 237.125C182.141 237.219 181.344 237.312 180.562 237.406C179.781 237.5 179.062 237.562 178.406 237.594V225.969C178.406 225.812 178.422 225.562 178.453 225.219C178.484 224.875 178.516 224.5 178.547 224.094C178.609 223.656 178.672 223.234 178.734 222.828C178.797 222.422 178.859 222.078 178.922 221.797C178.328 221.703 177.625 221.578 176.812 221.422C176 221.266 175.141 221.109 174.234 220.953C173.328 220.766 172.406 220.609 171.469 220.484C170.562 220.328 169.719 220.203 168.938 220.109L168.234 221.844C170.297 222.344 171.766 222.906 172.641 223.531C173.547 224.125 174 224.906 174 225.875V246.734V248.75C174.031 249.5 174.062 250.266 174.094 251.047C174.156 251.797 174.203 252.5 174.234 253.156C174.266 253.812 174.312 254.328 174.375 254.703L177.703 254.188C177.797 253.656 177.875 253.031 177.938 252.312C178.031 251.562 178.109 250.781 178.172 249.969C178.266 249.125 178.328 248.297 178.359 247.484ZM175.359 263.609C177.359 263.641 179.328 263.688 181.266 263.75L181.875 260.047C180.531 260.234 178.984 260.422 177.234 260.609C175.484 260.797 173.703 260.953 171.891 261.078C170.078 261.203 168.328 261.297 166.641 261.359C164.984 261.453 163.578 261.484 162.422 261.453C161.703 261.422 161.25 261.328 161.062 261.172C160.875 261.047 160.781 260.688 160.781 260.094V254.656C160.781 254.125 160.812 253.484 160.875 252.734C160.938 251.984 161 251.422 161.062 251.047C160.594 250.953 159.984 250.859 159.234 250.766C158.516 250.672 157.766 250.578 156.984 250.484C156.234 250.391 155.5 250.297 154.781 250.203C154.094 250.109 153.531 250.031 153.094 249.969L152.297 251.703C153.234 251.953 153.969 252.172 154.5 252.359C155.062 252.547 155.484 252.781 155.766 253.062C156.047 253.344 156.219 253.703 156.281 254.141C156.344 254.547 156.375 255.094 156.375 255.781V261.594C156.375 262.281 156.609 262.875 157.078 263.375C157.578 263.875 158.375 264.094 159.469 264.031C160.844 263.938 162.391 263.859 164.109 263.797C165.828 263.734 167.641 263.688 169.547 263.656C171.453 263.625 173.391 263.609 175.359 263.609ZM164.391 234.125C165.953 231.781 167.125 229.438 167.906 227.094L166.172 226.062C165.609 226.188 164.844 226.328 163.875 226.484C162.938 226.609 161.859 226.734 160.641 226.859C159.453 226.953 158.188 227.047 156.844 227.141C155.531 227.203 154.219 227.234 152.906 227.234C152.375 227.234 151.75 227.219 151.031 227.188C150.344 227.125 149.641 227.062 148.922 227C148.203 226.938 147.531 226.875 146.906 226.812C146.281 226.75 145.797 226.688 145.453 226.625L147.891 230.469C148.391 230.344 148.969 230.25 149.625 230.188C150.281 230.094 150.922 230.016 151.547 229.953C152.203 229.859 152.797 229.797 153.328 229.766C153.891 229.734 154.312 229.703 154.594 229.672C154.906 229.641 155.328 229.609 155.859 229.578C156.422 229.547 157.031 229.516 157.688 229.484C158.344 229.453 159.031 229.438 159.75 229.438C160.5 229.406 161.219 229.391 161.906 229.391C161.188 231.234 160.219 233.109 159 235.016C157.781 236.891 156.375 238.719 154.781 240.5C153.188 242.25 151.453 243.906 149.578 245.469C147.703 247 145.75 248.344 143.719 249.5L144.844 250.906C147.406 249.75 149.891 248.297 152.297 246.547C154.734 244.797 156.969 242.875 159 240.781C161.062 238.656 162.859 236.438 164.391 234.125Z" fill="white"/>
</svg>
