<svg width="143" height="238" viewBox="0 0 143 238" fill="none" xmlns="http://www.w3.org/2000/svg">
<path fill-rule="evenodd" clip-rule="evenodd" d="M22.546 0H113.196V20.3956H107.966V31.8172H139.781V95.9662C142.807 107.559 142.856 119.747 139.899 131.392C136.686 144.044 130.05 155.566 120.718 164.694C111.387 173.822 99.7211 180.202 87.0014 183.134C74.2817 186.067 60.9999 185.438 48.6141 181.317C36.2284 177.196 25.2174 169.742 16.7899 159.774C8.3625 149.806 2.84442 137.708 0.841439 124.809C-1.16154 111.911 0.428024 98.7093 5.43564 86.6547C10.2111 75.1589 17.9191 65.1297 27.7757 57.5613V20.3956H22.546V0ZM107.966 97.0832H135.633C138.468 107.965 138.511 119.405 135.736 130.335C132.717 142.222 126.482 153.048 117.715 161.624C108.948 170.199 97.9872 176.194 86.0365 178.949C74.0858 181.704 61.607 181.113 49.97 177.242C38.3331 173.37 27.9878 166.367 20.0698 157.001C12.1519 147.635 6.96741 136.269 5.08553 124.15C3.20364 112.031 4.69711 99.6282 9.40197 88.3024C13.4572 78.5405 19.7629 69.9042 27.7757 63.0832V102.386H22.546V122.782H113.196V102.386H107.966V97.0832ZM107.966 37.528V91.3725H132.808V37.528H107.966ZM54.4844 205.234C53.2032 204.891 52.0001 204.531 50.8751 204.156C52.7813 202.969 54.5626 201.703 56.2188 200.359C57.9063 198.984 59.4376 197.484 60.8126 195.859L59.3594 194.359C58.0157 194.609 56.4688 194.828 54.7188 195.016C52.9688 195.172 51.2032 195.297 49.4219 195.391C47.6407 195.484 45.9219 195.547 44.2657 195.578C42.6094 195.609 41.2188 195.625 40.0938 195.625C39.5626 195.625 38.9532 195.609 38.2657 195.578C37.5782 195.516 36.8751 195.453 36.1563 195.391C35.4688 195.328 34.8126 195.266 34.1876 195.203C33.5626 195.109 33.0469 195.016 32.6407 194.922L35.0313 198.766C35.5626 198.672 36.1563 198.594 36.8126 198.531C37.5001 198.438 38.1719 198.359 38.8282 198.297C39.4844 198.203 40.0938 198.125 40.6563 198.062C41.2188 198 41.6563 197.969 41.9688 197.969C43.5938 197.906 45.4219 197.828 47.4532 197.734C49.5157 197.641 51.4688 197.594 53.3126 197.594C50.5313 200.406 47.0782 202.953 42.9532 205.234C38.8594 207.484 34.3594 209.359 29.4532 210.859L30.6251 212.312C33.6563 211.531 36.6719 210.594 39.6719 209.5C42.7032 208.375 45.5938 207.062 48.3438 205.562C49.5001 205.969 50.7813 206.422 52.1876 206.922C53.6251 207.391 55.0469 207.875 56.4532 208.375C57.8594 208.875 59.1876 209.344 60.4376 209.781C61.7188 210.219 62.7813 210.594 63.6251 210.906L66.3907 207.578C65.1719 207.391 63.8751 207.188 62.5001 206.969C61.1563 206.719 59.8126 206.453 58.4688 206.172C57.1251 205.859 55.7969 205.547 54.4844 205.234ZM50.9688 229.422C51.0313 228.484 51.0626 227.594 51.0626 226.75V218.641C52.5626 218.578 53.9376 218.547 55.1876 218.547C56.4376 218.516 57.4844 218.5 58.3282 218.5C59.3594 218.5 60.3907 218.516 61.4219 218.547C62.4532 218.578 63.4532 218.609 64.4219 218.641C65.3907 218.641 66.2813 218.656 67.0938 218.688C67.9376 218.719 68.6719 218.75 69.2969 218.781L69.8594 214.938C68.1719 215.188 66.2344 215.422 64.0469 215.641C61.8907 215.828 59.7657 215.969 57.6719 216.062C56.9219 216.094 55.9376 216.141 54.7188 216.203C53.5313 216.234 52.2188 216.266 50.7813 216.297C49.3751 216.328 47.8907 216.375 46.3282 216.438C44.7969 216.469 43.3126 216.5 41.8751 216.531H37.8907C36.7032 216.531 35.7188 216.516 34.9376 216.484C33.5313 216.422 32.0157 216.344 30.3907 216.25C28.7969 216.125 27.2969 215.984 25.8907 215.828L27.4844 219.906C28.5782 219.75 29.7969 219.609 31.1407 219.484C32.5157 219.359 33.7969 219.266 34.9844 219.203C35.4844 219.172 36.1407 219.141 36.9532 219.109C37.7657 219.047 38.6876 219 39.7188 218.969C40.7501 218.906 41.8594 218.859 43.0469 218.828C44.2344 218.797 45.4376 218.766 46.6563 218.734V228.344V230.688V233.266C46.6876 234.141 46.7188 234.969 46.7501 235.75C46.8126 236.562 46.8751 237.234 46.9376 237.766L50.2657 237.203C50.3907 236.547 50.5001 235.781 50.5938 234.906C50.6876 234.062 50.7657 233.172 50.8282 232.234C50.8907 231.297 50.9376 230.359 50.9688 229.422ZM100.469 208.703C102.031 208.516 103.656 208.375 105.344 208.281V213.203V214.656C105.375 215.188 105.406 215.734 105.438 216.297C105.5 216.828 105.547 217.344 105.578 217.844C105.641 218.344 105.703 218.766 105.766 219.109L108.953 218.594C109.047 218.219 109.141 217.703 109.234 217.047C109.328 216.359 109.406 215.641 109.469 214.891C109.563 214.141 109.641 213.391 109.703 212.641C109.766 211.891 109.797 211.234 109.797 210.672V197.969C109.797 197.812 109.813 197.562 109.844 197.219C109.875 196.875 109.906 196.5 109.938 196.094C110 195.656 110.063 195.234 110.125 194.828C110.188 194.422 110.25 194.078 110.313 193.797C109.688 193.703 108.953 193.578 108.109 193.422C107.297 193.266 106.438 193.109 105.531 192.953C104.625 192.766 103.719 192.609 102.813 192.484C101.906 192.328 101.078 192.203 100.328 192.109L99.4844 193.844C101.547 194.344 103.031 194.906 103.938 195.531C104.875 196.125 105.344 196.906 105.344 197.875V206.031C104.625 206.031 103.875 206.047 103.094 206.078C102.344 206.078 101.656 206.094 101.031 206.125H99.4376C98.8751 206.094 98.2969 206.062 97.7032 206.031C97.1407 205.969 96.5938 205.922 96.0626 205.891C95.5626 205.828 95.1407 205.766 94.7969 205.703L96.5313 209.312C97.5938 209.062 98.9063 208.859 100.469 208.703ZM109 231.953C108.719 231.953 108.422 231.984 108.109 232.047C108.172 231.172 108.25 230.203 108.344 229.141L108.625 225.859C108.75 224.734 108.859 223.656 108.953 222.625C109.078 221.594 109.203 220.672 109.328 219.859C105.141 220.203 100.938 220.438 96.7188 220.562C92.5001 220.656 88.3438 220.453 84.2501 219.953L83.4063 221.688C84.1251 221.875 84.6876 222.047 85.0938 222.203C85.5313 222.328 85.8594 222.5 86.0782 222.719C86.2969 222.938 86.4376 223.234 86.5001 223.609C86.5938 223.953 86.6719 224.406 86.7344 224.969L87.2969 232.562C87.3594 233.375 87.4063 234.125 87.4376 234.812C87.5001 235.5 87.6563 236.375 87.9063 237.438L90.9063 236.922C90.9688 236.609 91.0157 236.297 91.0469 235.984C91.1094 235.703 91.1719 235.438 91.2344 235.188C92.5782 235.125 94.0469 235.078 95.6407 235.047C97.2344 235.016 98.8282 235 100.422 235C102.016 235.031 103.563 235.062 105.063 235.094C106.563 235.125 107.875 235.188 109 235.281L109.844 231.859L109 231.953ZM101.125 222.812C102.313 222.812 103.391 222.828 104.359 222.859L104.219 232.328C102.25 232.422 100.125 232.5 97.8438 232.562C95.5626 232.656 93.4063 232.719 91.3751 232.75V231.672L91.1876 223.141C92.0313 223.078 93.0157 223.016 94.1407 222.953C95.2657 222.891 96.4219 222.844 97.6094 222.812C98.7969 222.781 99.9688 222.781 101.125 222.812ZM95.6407 211.844C93.9844 210.75 92.3594 209.578 90.7657 208.328C92.1407 206.859 93.3751 205.297 94.4688 203.641C95.5938 201.984 96.5313 200.219 97.2813 198.344L95.9219 197.031C94.1094 197.438 92.0626 197.734 89.7813 197.922C87.5001 198.078 85.1876 198.156 82.8438 198.156C82.3438 198.156 81.7501 198.141 81.0626 198.109C80.4063 198.047 79.7344 197.984 79.0469 197.922C78.3594 197.859 77.7032 197.797 77.0782 197.734C76.4532 197.641 75.9376 197.562 75.5313 197.5L78.0157 201.25C78.5157 201.156 79.0782 201.078 79.7032 201.016C80.3594 200.922 81.0001 200.844 81.6251 200.781C82.2813 200.719 82.8907 200.656 83.4532 200.594C84.0469 200.531 84.5157 200.5 84.8594 200.5C85.2969 200.5 85.7969 200.484 86.3594 200.453C86.9219 200.422 87.5001 200.391 88.0938 200.359C88.6876 200.328 89.2657 200.297 89.8282 200.266C90.3907 200.234 90.9063 200.219 91.3751 200.219C89.7188 203.906 87.3438 207.297 84.2501 210.391C81.1876 213.484 77.5782 216.078 73.4219 218.172L74.6876 219.625C77.0938 218.531 79.5469 217.188 82.0469 215.594C84.5782 213.969 86.9376 212.078 89.1251 209.922C90.7188 211.328 92.2032 212.734 93.5782 214.141C94.9844 215.516 96.3907 216.859 97.7969 218.172L101.219 215.125C99.1876 214 97.3282 212.906 95.6407 211.844Z" fill="white"/>
</svg>
