<svg width="475" height="114" viewBox="0 0 475 114" fill="none" xmlns="http://www.w3.org/2000/svg">
<path fill-rule="evenodd" clip-rule="evenodd" d="M65.8496 0L68.1309 43.5328L110.238 54.8153L69.541 70.4375L71.8228 113.97L44.3887 80.0925L3.69189 95.7147L27.4341 59.1549L0 25.2772L42.1074 36.5598L65.8496 0ZM339.276 0L341.557 43.5328L383.665 54.8153L342.967 70.4375L345.249 113.97L317.815 80.0925L277.118 95.7147L300.86 59.1549L273.426 25.2772L315.534 36.5598L339.276 0ZM432.615 43.5328L430.334 0L406.592 36.5598L364.484 25.2772L391.918 59.1549L368.176 95.7147L408.873 80.0925L436.307 113.97L434.025 70.4375L474.723 54.8153L432.615 43.5328ZM248.276 0L250.557 43.5328L292.665 54.8153L251.967 70.4375L254.249 113.97L226.815 80.0925L186.118 95.7147L209.86 59.1549L182.426 25.2772L224.534 36.5598L248.276 0ZM159.557 43.5328L157.276 0L133.534 36.5598L91.4263 25.2772L118.86 59.1549L95.1182 95.7147L135.815 80.0925L163.249 113.97L160.967 70.4375L201.665 54.8153L159.557 43.5328Z" fill="#817849"/>
<path d="M62.8776 9.88855L64.7711 46.019L99.7183 55.3831L65.9414 68.3488L67.8349 104.479L45.066 76.3621L11.2891 89.3279L30.9941 58.9847L8.2253 30.8676L43.1725 40.2317L62.8776 9.88855Z" fill="#FFC85A"/>
<path d="M336.878 9.88855L338.771 46.019L373.718 55.3831L339.941 68.3488L341.835 104.479L319.066 76.3621L285.289 89.3279L304.994 58.9847L282.225 30.8676L317.173 40.2317L336.878 9.88855Z" fill="#FFC85A"/>
<path d="M427.567 10L429.46 46.1304L464.407 55.4945L430.63 68.4603L432.524 104.591L409.755 76.4736L375.978 89.4393L395.683 59.0962L372.914 30.979L407.861 40.3431L427.567 10Z" fill="#FFC85A"/>
<path d="M245.878 9.88855L247.771 46.019L282.718 55.3831L248.941 68.3488L250.835 104.479L228.066 76.3621L194.289 89.3279L213.994 58.9847L191.225 30.8676L226.173 40.2317L245.878 9.88855Z" fill="#FFC85A"/>
<path d="M154.878 9.88855L156.771 46.019L191.718 55.3831L157.941 68.3488L159.835 104.479L137.066 76.3621L103.289 89.3279L122.994 58.9847L100.225 30.8676L135.173 40.2317L154.878 9.88855Z" fill="#FFC85A"/>
</svg>
