<svg width="143" height="229" viewBox="0 0 143 229" fill="none" xmlns="http://www.w3.org/2000/svg">
<path fill-rule="evenodd" clip-rule="evenodd" d="M117.324 -1.75387e-05L41.4858 13.327L41.6973 14.5308L0.485043 47.5L7.38812 77.8325C2.75272 87.1858 0.221313 97.4758 0.0138714 107.975C-0.243982 121.026 3.09886 133.895 9.67544 145.171C16.252 156.447 25.8081 165.692 37.2946 171.893C48.7811 178.094 61.754 181.01 74.7892 180.321C87.8243 179.633 100.418 175.366 111.187 167.99C121.957 160.614 130.485 150.413 135.837 138.507C141.19 126.601 143.158 113.451 141.527 100.5C140.094 89.1289 135.936 78.2972 129.434 68.9152L117.324 -1.75387e-05ZM22.5603 144.5L65.6882 111.622L134.805 99.4757L131.62 81.3526C134.49 87.5561 136.403 94.1925 137.265 101.037C138.798 113.205 136.949 125.56 131.92 136.746C126.892 147.932 118.878 157.516 108.76 164.446C98.6418 171.377 86.8097 175.386 74.5626 176.032C62.3155 176.679 50.1269 173.939 39.3348 168.114C28.5428 162.288 19.5644 153.601 13.3855 143.007C7.20647 132.413 4.06572 120.322 4.30799 108.06C4.46601 100.062 6.05936 92.1933 8.9779 84.8181L22.5603 144.5ZM28.2033 218.328C28.3283 217.141 28.3908 215.969 28.3908 214.812V213.734C29.8908 213.672 31.2658 213.641 32.5158 213.641H35.6564C36.6877 213.641 37.7189 213.656 38.7502 213.688C39.7814 213.719 40.7814 213.75 41.7502 213.781C42.7189 213.781 43.6096 213.797 44.4221 213.828C45.2658 213.859 46.0002 213.891 46.6252 213.922L47.2346 210.031C45.5158 210.281 43.5783 210.5 41.4221 210.688C39.2658 210.875 37.1408 211.031 35.0471 211.156C34.2971 211.188 33.2971 211.234 32.0471 211.297C30.7971 211.328 29.4377 211.359 27.9689 211.391C26.5002 211.422 24.9533 211.469 23.3283 211.531C21.7346 211.562 20.1877 211.594 18.6877 211.625H14.6096C13.3596 211.625 12.3596 211.609 11.6096 211.578C10.2033 211.516 8.68769 211.438 7.06269 211.344C5.46894 211.219 3.96894 211.062 2.56269 210.875L4.15644 214.953C5.25019 214.797 6.48456 214.656 7.85956 214.531C9.23456 214.406 10.5002 214.312 11.6564 214.25C12.1564 214.219 12.8283 214.188 13.6721 214.156C14.5158 214.125 15.4846 214.094 16.5783 214.062C17.6721 214.031 18.8439 214 20.0939 213.969C21.3439 213.938 22.6096 213.906 23.8908 213.875V215.516C23.8908 216.391 23.9221 217.453 23.9846 218.703C24.0783 219.953 24.1877 221.141 24.3127 222.266L27.7346 221.797C27.9221 220.672 28.0783 219.516 28.2033 218.328ZM29.7971 188.328H31.7658L32.5158 185.375C31.7971 185.469 30.9533 185.562 29.9846 185.656C29.0471 185.719 28.1252 185.781 27.2189 185.844C26.3127 185.906 25.4689 185.953 24.6877 185.984C23.9377 186.016 23.3908 186.031 23.0471 186.031C22.6408 186.031 22.1252 186.016 21.5002 185.984C20.9064 185.922 20.2814 185.859 19.6252 185.797C19.0002 185.734 18.3908 185.672 17.7971 185.609C17.2033 185.516 16.7189 185.438 16.3439 185.375L18.2658 188.844C18.6408 188.781 19.0939 188.734 19.6252 188.703C20.1564 188.641 20.6721 188.594 21.1721 188.562C21.7033 188.531 22.1877 188.516 22.6252 188.516C23.0939 188.484 23.4377 188.469 23.6564 188.469H25.2971C25.9846 188.438 26.7189 188.406 27.5002 188.375C28.2814 188.344 29.0471 188.328 29.7971 188.328ZM37.3908 192.828C38.7658 192.828 39.8752 192.844 40.7189 192.875L41.7033 189.5C40.4533 189.656 39.0314 189.797 37.4377 189.922C35.8752 190.016 34.2502 190.125 32.5627 190.25C30.8752 190.344 29.1721 190.438 27.4533 190.531C25.7658 190.594 24.1564 190.656 22.6252 190.719C21.1252 190.781 19.7502 190.828 18.5002 190.859C17.2814 190.891 16.3127 190.906 15.5939 190.906C15.1252 190.906 14.5471 190.891 13.8596 190.859C13.1721 190.797 12.4533 190.734 11.7033 190.672C10.9846 190.609 10.2814 190.547 9.59394 190.484C8.90644 190.391 8.34394 190.297 7.90644 190.203L9.54706 194C9.95331 193.938 10.4689 193.875 11.0939 193.812C11.7502 193.75 12.4221 193.688 13.1096 193.625C13.7971 193.562 14.4533 193.516 15.0783 193.484C15.7033 193.422 16.2033 193.391 16.5783 193.391C17.1408 193.359 18.0002 193.328 19.1564 193.297C20.3439 193.234 21.6877 193.172 23.1877 193.109C24.7189 193.047 26.3283 193 28.0158 192.969C29.7346 192.906 31.3908 192.859 32.9846 192.828C34.5783 192.797 36.0471 192.797 37.3908 192.828ZM34.4846 204.594C35.0158 203.688 35.2814 202.734 35.2814 201.734C35.2814 200.797 35.0314 199.891 34.5314 199.016C34.0314 198.109 33.3283 197.328 32.4221 196.672C31.5471 195.984 30.4689 195.438 29.1877 195.031C27.9064 194.625 26.5002 194.422 24.9689 194.422C23.5314 194.422 22.1877 194.609 20.9377 194.984C19.6877 195.328 18.5939 195.828 17.6564 196.484C16.7502 197.109 16.0314 197.875 15.5002 198.781C14.9689 199.656 14.7033 200.641 14.7033 201.734C14.7033 202.734 14.9689 203.688 15.5002 204.594C16.0314 205.469 16.7658 206.25 17.7033 206.938C18.6408 207.625 19.7346 208.172 20.9846 208.578C22.2346 208.953 23.5627 209.141 24.9689 209.141C26.4377 209.141 27.7971 208.953 29.0471 208.578C30.2971 208.172 31.3752 207.641 32.2814 206.984C33.2189 206.297 33.9533 205.5 34.4846 204.594ZM20.0002 203.516C19.7189 202.922 19.5783 202.297 19.5783 201.641C19.5783 200.859 19.7189 200.172 20.0002 199.578C20.3127 198.953 20.7033 198.422 21.1721 197.984C21.6721 197.547 22.2502 197.219 22.9064 197C23.5939 196.75 24.3127 196.625 25.0627 196.625C26.7189 196.625 28.0314 197.125 29.0002 198.125C30.0002 199.094 30.5002 200.266 30.5002 201.641C30.5002 202.328 30.3596 202.969 30.0783 203.562C29.7971 204.156 29.4064 204.672 28.9064 205.109C28.4377 205.516 27.8596 205.844 27.1721 206.094C26.5158 206.344 25.8127 206.469 25.0627 206.469C24.3127 206.469 23.6096 206.344 22.9533 206.094C22.2971 205.844 21.7189 205.5 21.2189 205.062C20.7189 204.594 20.3127 204.078 20.0002 203.516ZM34.6252 227.703C36.8752 227.766 38.9689 227.844 40.9064 227.938L41.5627 224.234C40.6564 224.391 39.5939 224.516 38.3752 224.609C37.1564 224.734 35.8596 224.844 34.4846 224.938C33.1408 225.031 31.7502 225.109 30.3127 225.172C28.9064 225.266 27.5314 225.328 26.1877 225.359C24.8752 225.422 23.6408 225.453 22.4846 225.453C21.3596 225.484 20.4064 225.484 19.6252 225.453C18.9689 225.422 18.5471 225.328 18.3596 225.172C18.1721 225.047 18.0783 224.688 18.0783 224.094V221.375C18.0783 220.781 18.1096 220.125 18.1721 219.406C18.2346 218.656 18.2971 218.094 18.3596 217.719C17.8908 217.656 17.2814 217.578 16.5314 217.484C15.8127 217.359 15.0627 217.25 14.2814 217.156C13.5314 217.062 12.7971 216.969 12.0783 216.875C11.3596 216.781 10.7658 216.703 10.2971 216.641L9.54706 218.375C10.5158 218.625 11.2658 218.844 11.7971 219.031C12.3596 219.219 12.7814 219.453 13.0627 219.734C13.3439 220.016 13.5158 220.375 13.5783 220.812C13.6408 221.219 13.6721 221.766 13.6721 222.453V225.594C13.6721 226.281 13.8908 226.875 14.3283 227.375C14.7971 227.875 15.5939 228.094 16.7189 228.031C18.1252 227.938 19.8127 227.859 21.7814 227.797C23.7502 227.766 25.8283 227.734 28.0158 227.703C30.2033 227.672 32.4064 227.672 34.6252 227.703ZM65.1877 192.594C66.5939 192.5 67.8283 192.484 68.8908 192.547L68.4221 199.484C66.1408 199.641 63.7346 199.734 61.2033 199.766C58.6721 199.797 55.8596 199.641 52.7658 199.297L51.9689 200.703C52.7189 200.953 53.3127 201.172 53.7502 201.359C54.2189 201.547 54.5627 201.766 54.7814 202.016C55.0314 202.266 55.1877 202.578 55.2502 202.953C55.3127 203.297 55.3439 203.75 55.3439 204.312V209.141C55.3439 210.641 55.7033 211.734 56.4221 212.422C57.1408 213.078 58.3596 213.297 60.0783 213.078C63.0158 212.703 65.7971 212.172 68.4221 211.484C71.0471 210.766 73.7189 209.922 76.4377 208.953V207.078C73.6252 207.922 70.9689 208.562 68.4689 209C65.9689 209.406 63.4689 209.703 60.9689 209.891C60.1564 209.953 59.7502 209.5 59.7502 208.531V203.656C59.7502 203.406 59.7658 203.156 59.7971 202.906C59.8283 202.625 59.8439 202.359 59.8439 202.109C60.6252 202.078 61.4221 202.031 62.2346 201.969C63.0471 201.906 63.9533 201.859 64.9533 201.828C65.9846 201.797 67.1564 201.797 68.4689 201.828C69.7814 201.828 71.3596 201.875 73.2033 201.969L73.5314 198.969C73.3752 199.031 73.2033 199.062 73.0158 199.062C72.8283 199.062 72.6252 199.078 72.4064 199.109L73.1564 194.891L74.4689 197.562C75.5314 197.344 76.7033 197.156 77.9846 197C79.2658 196.812 80.5627 196.688 81.8752 196.625V202.766C81.2502 202.828 80.5939 202.875 79.9064 202.906C79.2189 202.906 78.6096 202.922 78.0783 202.953C77.2658 203.016 76.3752 203 75.4064 202.906C74.4689 202.812 73.5471 202.688 72.6408 202.531L74.4221 206.141C75.4846 205.922 76.6564 205.734 77.9377 205.578C79.2502 205.422 80.5627 205.297 81.8752 205.203V211.25V213.219C81.9064 213.969 81.9377 214.734 81.9689 215.516C82.0314 216.266 82.0783 216.984 82.1096 217.672C82.1408 218.328 82.1877 218.844 82.2502 219.219L85.4846 218.656C85.5783 218.125 85.6721 217.5 85.7658 216.781C85.8908 216.031 85.9846 215.25 86.0471 214.438C86.1096 213.594 86.1564 212.766 86.1877 211.953C86.2502 211.141 86.2814 210.375 86.2814 209.656V189.969C86.2814 189.812 86.2971 189.562 86.3283 189.219C86.3596 188.875 86.3908 188.5 86.4221 188.094C86.4846 187.656 86.5471 187.234 86.6096 186.828C86.7033 186.422 86.7814 186.078 86.8439 185.797C86.2189 185.703 85.4846 185.578 84.6408 185.422C83.8283 185.266 82.9689 185.109 82.0627 184.953C81.1564 184.766 80.2502 184.609 79.3439 184.484C78.4377 184.328 77.6096 184.203 76.8596 184.109L76.0158 185.844C78.0783 186.344 79.5627 186.906 80.4689 187.531C81.4064 188.125 81.8752 188.906 81.8752 189.875V194.234C81.2814 194.266 80.6408 194.297 79.9533 194.328C79.2658 194.328 78.6564 194.344 78.1252 194.375C77.4377 194.406 76.6721 194.406 75.8283 194.375C74.9846 194.312 74.1408 194.219 73.2971 194.094L73.3908 193.484C73.4221 193.297 73.4689 193.047 73.5314 192.734C73.5939 192.422 73.6564 192.094 73.7189 191.75C73.7814 191.375 73.8439 191.031 73.9064 190.719C73.9689 190.406 74.0158 190.156 74.0471 189.969C72.7971 190.094 71.4846 190.203 70.1096 190.297C68.7658 190.359 67.4377 190.422 66.1252 190.484C64.8127 190.516 63.5783 190.547 62.4221 190.578H59.4221C58.9221 190.578 58.3283 190.562 57.6408 190.531C56.9846 190.469 56.3127 190.406 55.6252 190.344C54.9689 190.281 54.3283 190.203 53.7033 190.109C53.1096 190.016 52.6252 189.938 52.2502 189.875L54.4533 193.672C55.0158 193.578 55.6252 193.484 56.2814 193.391C56.9689 193.297 57.6252 193.219 58.2502 193.156C58.9064 193.094 59.5002 193.047 60.0314 193.016C60.5939 192.953 61.0471 192.906 61.3908 192.875C62.5471 192.781 63.8127 192.688 65.1877 192.594ZM82.8596 227.703C84.8283 227.734 86.7658 227.797 88.6721 227.891L89.2814 224.188C87.9377 224.406 86.3908 224.594 84.6408 224.75C82.9221 224.906 81.1721 225.047 79.3908 225.172C77.6408 225.297 75.9377 225.375 74.2814 225.406C72.6564 225.469 71.2502 225.484 70.0627 225.453C69.4377 225.422 69.0158 225.328 68.7971 225.172C68.6096 225.047 68.5158 224.688 68.5158 224.094V219.453C68.5158 218.891 68.5471 218.234 68.6096 217.484C68.7033 216.734 68.7814 216.172 68.8439 215.797C68.3752 215.734 67.7658 215.656 67.0158 215.562C66.2971 215.438 65.5471 215.328 64.7658 215.234C64.0158 215.141 63.2814 215.047 62.5627 214.953C61.8439 214.859 61.2502 214.781 60.7814 214.719L59.9377 216.453C60.9064 216.703 61.6721 216.938 62.2346 217.156C62.7971 217.344 63.2189 217.578 63.5002 217.859C63.7814 218.141 63.9533 218.484 64.0158 218.891C64.0783 219.297 64.1096 219.844 64.1096 220.531V225.594C64.1096 226.281 64.3439 226.875 64.8127 227.375C65.2814 227.875 66.0783 228.094 67.2033 228.031C68.6096 227.938 70.1564 227.859 71.8439 227.797C73.5314 227.734 75.2971 227.688 77.1408 227.656C79.0158 227.656 80.9221 227.672 82.8596 227.703ZM121.578 198.641C120.047 197.766 118.641 196.922 117.36 196.109C118.828 194.297 120.094 192.359 121.156 190.297C119.969 189.859 118.625 189.422 117.125 188.984C115.625 188.516 114.266 188.109 113.047 187.766L111.828 189.219C112.297 189.406 112.844 189.672 113.469 190.016C114.094 190.328 114.531 190.594 114.781 190.812C115.188 191.156 115.219 191.641 114.875 192.266C113.219 195.391 110.891 198.375 107.891 201.219C104.922 204.031 101.485 206.484 97.5783 208.578L98.7033 210.125C101.828 208.688 104.86 206.984 107.797 205.016C110.735 203.047 113.375 200.719 115.719 198.031C116.969 198.812 118.266 199.641 119.61 200.516C120.985 201.359 122.344 202.234 123.688 203.141C125.063 204.016 126.406 204.906 127.719 205.812C129.031 206.688 130.266 207.562 131.422 208.438L134.797 204.969C133.641 204.562 132.313 204.031 130.813 203.375C129.344 202.688 127.813 201.953 126.219 201.172C124.656 200.359 123.11 199.516 121.578 198.641ZM122.938 219.312C121.906 219.344 120.75 219.391 119.469 219.453V212V211.25C119.5 210.938 119.531 210.594 119.563 210.219C119.625 209.844 119.672 209.469 119.703 209.094C119.766 208.719 119.828 208.391 119.891 208.109C119.297 208.016 118.625 207.938 117.875 207.875C117.156 207.812 116.406 207.75 115.625 207.688C114.875 207.625 114.141 207.594 113.422 207.594C112.703 207.562 112.078 207.547 111.547 207.547L110.891 209.234C111.766 209.328 112.469 209.438 113 209.562C113.531 209.688 113.938 209.859 114.219 210.078C114.531 210.297 114.735 210.562 114.828 210.875C114.953 211.188 115.016 211.578 115.016 212.047V219.594L111.735 219.688H108.594H105.875C105.063 219.688 104.36 219.672 103.766 219.641C102.328 219.578 100.813 219.5 99.2189 219.406C97.6564 219.281 96.1721 219.125 94.7658 218.938L96.2658 223.109C97.4221 222.953 98.6721 222.812 100.016 222.688C101.36 222.562 102.625 222.469 103.813 222.406C104.438 222.375 105.297 222.328 106.391 222.266C107.516 222.203 108.766 222.156 110.141 222.125C111.516 222.062 112.953 222.016 114.453 221.984C115.985 221.922 117.469 221.875 118.906 221.844C120.375 221.781 121.735 221.75 122.985 221.75C124.235 221.719 125.297 221.703 126.172 221.703C128.266 221.734 130.313 221.766 132.313 221.797C134.313 221.828 135.938 221.875 137.188 221.938L137.75 218.094C136.063 218.344 134.125 218.578 131.938 218.797C129.781 218.984 127.656 219.125 125.563 219.219C124.844 219.25 123.969 219.281 122.938 219.312Z" fill="white"/>
</svg>
